<svg width="145" height="140" viewBox="0 0 145 140" fill="none" xmlns="http://www.w3.org/2000/svg">
<path d="M133.542 69.3998C133.542 105.458 105.808 135.383 71.9402 135.383C38.0725 135.383 10.2073 106.072 10.2073 70.0132C10.2073 33.9549 38.3792 4.07422 72.2469 4.07422C106.115 4.07422 133.542 33.2977 133.542 69.3998Z" fill="url(#paint0_linear)"/>
<path d="M43.9432 123.203C41.0515 120.618 38.3351 117.77 35.9254 114.747C31.7631 109.577 28.3019 103.837 25.4978 97.7911C24.0958 94.768 22.9128 91.6572 21.9051 88.4588C20.8536 85.3043 20.0211 82.0621 19.4078 78.7761C18.1372 72.2479 17.6552 65.5445 18.0934 58.9287C18.5315 52.3129 19.9773 45.7409 22.4747 39.607C22.6938 39.0374 22.9566 38.4241 23.2195 37.8545C25.7607 36.4963 31.2812 34.218 36.0568 31.2387C40.6572 28.347 44.8195 23.9219 46.572 21.7312C48.3245 19.4967 49.858 16.5612 49.9018 16.2545C49.9456 15.904 50.1647 15.5097 49.9018 15.6411C49.6389 15.7288 38.2037 21.4683 33.1651 24.7981C31.1935 26.1125 29.2657 27.646 27.3818 29.3109C27.2503 29.4423 27.0751 29.5738 26.9436 29.7052C26.5493 30.0557 26.1988 30.4062 25.8045 30.7567C25.6292 30.932 25.454 31.0634 25.2787 31.2387C24.8844 31.5892 24.5339 31.9397 24.1396 32.2902C23.9643 32.4216 23.8329 32.5969 23.6576 32.7283C23.1319 33.2103 22.6061 33.736 22.0804 34.2618C21.7737 34.6123 21.7737 34.6123 21.7737 33.9551C21.7737 33.8237 21.7737 33.736 21.7737 33.6046C21.8175 33.035 21.8613 32.5093 21.9489 31.9835C21.9927 31.633 22.0804 31.2825 22.1242 30.932C22.1242 30.8882 22.1242 30.8005 22.168 30.7567C22.2556 30.4062 22.3432 30.0557 22.4309 29.7052C22.4309 29.6176 22.4747 29.53 22.5185 29.4861C22.6061 29.1356 22.7376 28.7851 22.8252 28.4346C22.869 28.347 22.869 28.3032 22.9128 28.2156C23.0443 27.9089 23.1319 27.6022 23.2633 27.2955C23.3071 27.2517 23.3071 27.164 23.351 27.1202C23.4824 26.8135 23.6138 26.463 23.7891 26.1563C23.8329 26.0687 23.8767 25.9373 23.9205 25.8496C24.052 25.5429 24.2272 25.2363 24.3587 24.9296C24.4025 24.7981 24.4901 24.7105 24.5339 24.5791C24.6653 24.2724 24.8406 24.0095 25.0159 23.7466C25.0597 23.6152 25.1473 23.5275 25.1911 23.3961C25.3225 23.177 25.454 22.9141 25.6292 22.6951C27.8637 19.0586 30.843 15.7288 33.6471 12.8809C37.8093 8.63101 41.4458 5.78315 41.6211 5.69552C41.9278 5.47645 42.5412 5.08213 42.3659 5.38883C40.8763 7.84237 39.5181 10.1207 38.2475 12.3113C37.7655 13.1438 37.2836 13.9324 37.0645 14.3706C36.6264 15.0716 36.2321 15.8164 35.7939 16.5174C35.3996 17.1746 34.3481 18.9271 33.3404 20.6797C32.7708 21.6436 32.1574 22.6513 31.5002 23.7028C30.9307 24.5791 30.4925 25.3239 30.2296 25.8058C30.0544 26.1125 29.9668 26.3316 30.0106 26.3316C30.624 25.7182 31.2373 25.0172 31.8945 24.2285C32.2451 23.878 32.5956 23.5275 33.1213 22.958C37.6341 18.0947 43.0669 14.0639 49.157 11.3036C55.247 8.63101 61.9067 7.2728 68.6101 7.22899C70.275 7.31661 71.9837 7.2728 73.6486 7.49186C74.4811 7.57949 75.3135 7.66712 76.146 7.75474L78.6433 8.19288L79.8701 8.41194L81.0969 8.71864L83.5504 9.33202C84.3829 9.55109 85.1715 9.81397 85.9602 10.0768C86.7488 10.3397 87.5812 10.5588 88.3699 10.9093C89.9472 11.5227 91.5245 12.0923 93.0579 12.8371C93.8027 13.1876 94.5914 13.5381 95.3362 13.9324L97.5707 15.1592L98.666 15.7726L99.7613 16.4298L101.908 17.788C102.609 18.2699 103.31 18.7519 103.967 19.2338L105.019 19.9787L105.545 20.3292L106.027 20.7235C110.364 24.0971 114.264 27.9965 117.681 32.2902L117.725 32.3778L119.127 34.4809C120.047 35.8829 120.923 37.3287 121.799 38.7746C124.428 43.2873 126.707 47.9754 128.547 52.8386C128.634 53.1015 128.722 53.3644 128.81 53.6711C129.116 54.4597 129.248 55.2922 129.467 56.1246L130.08 58.5782C130.343 60.2431 130.694 61.908 130.825 63.6167C131.044 65.2816 131.044 66.9903 131.132 68.699C131.088 70.4078 131.132 72.1165 130.956 73.7814C130.913 74.2633 130.913 74.7453 130.869 75.2272C129.73 81.7992 127.977 88.2398 125.48 94.4174L124.516 96.7834L123.421 99.1055C122.72 100.683 121.887 102.129 121.098 103.618C120.704 104.363 120.222 105.064 119.784 105.809L119.127 106.904C118.908 107.255 118.645 107.605 118.426 107.956L116.98 110.059L115.447 112.074C113.343 114.747 111.065 117.288 108.612 119.61C106.859 121.275 104.975 122.765 103.004 124.21C102.609 124.386 102.215 124.517 101.821 124.692C101.032 124.999 100.243 125.262 99.4547 125.525L98.2717 125.919L97.6583 126.138L97.0449 126.314C95.4238 126.708 93.8027 127.234 92.1816 127.54C79.0377 130.257 65.1488 129.862 52.2239 126.27C49.4199 125.35 46.6158 124.386 43.9432 123.203Z" fill="url(#paint1_linear)"/>
<path d="M43.9432 123.203C41.0515 120.618 38.3351 117.77 35.9254 114.747C31.7631 109.577 28.3019 103.837 25.4978 97.7911C24.0958 94.768 22.9128 91.6572 21.9051 88.4588C20.8536 85.3043 20.0211 82.0621 19.4078 78.7761C18.1372 72.2479 17.6552 65.5445 18.0934 58.9287C18.5315 52.3129 19.9773 45.7409 22.4747 39.607C22.6938 39.0374 22.9566 38.4241 23.2195 37.8545C25.7607 36.4963 31.2812 34.218 36.0568 31.2387C40.6572 28.347 44.8195 23.9219 46.572 21.7312C48.3245 19.4967 49.858 16.5612 49.9018 16.2545C49.9456 15.904 50.1647 15.5097 49.9018 15.6411C49.6389 15.7288 38.2037 21.4683 33.1651 24.7981C31.1935 26.1125 29.2657 27.646 27.3818 29.3109C27.2503 29.4423 27.0751 29.5738 26.9436 29.7052C26.5493 30.0557 26.1988 30.4062 25.8045 30.7567C25.6292 30.932 25.454 31.0634 25.2787 31.2387C24.8844 31.5892 24.5339 31.9397 24.1396 32.2902C23.9643 32.4216 23.8329 32.5969 23.6576 32.7283C23.1319 33.2103 22.6061 33.736 22.0804 34.2618C21.7737 34.6123 21.7737 34.6123 21.7737 33.9551C21.7737 33.8237 21.7737 33.736 21.7737 33.6046C21.8175 33.035 21.8613 32.5093 21.9489 31.9835C21.9927 31.633 22.0804 31.2825 22.1242 30.932C22.1242 30.8882 22.1242 30.8005 22.168 30.7567C22.2556 30.4062 22.3432 30.0557 22.4309 29.7052C22.4309 29.6176 22.4747 29.53 22.5185 29.4861C22.6061 29.1356 22.7376 28.7851 22.8252 28.4346C22.869 28.347 22.869 28.3032 22.9128 28.2156C23.0443 27.9089 23.1319 27.6022 23.2633 27.2955C23.3071 27.2517 23.3071 27.164 23.351 27.1202C23.4824 26.8135 23.6138 26.463 23.7891 26.1563C23.8329 26.0687 23.8767 25.9373 23.9205 25.8496C24.052 25.5429 24.2272 25.2363 24.3587 24.9296C24.4025 24.7981 24.4901 24.7105 24.5339 24.5791C24.6653 24.2724 24.8406 24.0095 25.0159 23.7466C25.0597 23.6152 25.1473 23.5275 25.1911 23.3961C25.3225 23.177 25.454 22.9141 25.6292 22.6951C27.8637 19.0586 30.843 15.7288 33.6471 12.8809C37.8093 8.63101 41.4458 5.78315 41.6211 5.69552C41.9278 5.47645 42.5412 5.08213 42.3659 5.38883C40.8763 7.84237 39.5181 10.1207 38.2475 12.3113C37.7655 13.1438 37.2836 13.9324 37.0645 14.3706C36.6264 15.0716 36.2321 15.8164 35.7939 16.5174C35.3996 17.1746 34.3481 18.9271 33.3404 20.6797C32.7708 21.6436 32.1574 22.6513 31.5002 23.7028C30.9307 24.5791 30.4925 25.3239 30.2296 25.8058C30.0544 26.1125 29.9668 26.3316 30.0106 26.3316C30.624 25.7182 31.2373 25.0172 31.8945 24.2285C32.2451 23.878 32.5956 23.5275 33.1213 22.958C37.6341 18.0947 43.0669 14.0639 49.157 11.3036C55.247 8.63101 61.9067 7.2728 68.6101 7.22899C70.275 7.31661 71.9837 7.2728 73.6486 7.49186C74.4811 7.57949 75.3135 7.66712 76.146 7.75474L78.6433 8.19288L79.8701 8.41194L81.0969 8.71864L83.5504 9.33202C84.3829 9.55109 85.1715 9.81397 85.9602 10.0768C86.7488 10.3397 87.5812 10.5588 88.3699 10.9093C89.9472 11.5227 91.5245 12.0923 93.0579 12.8371C93.8027 13.1876 94.5914 13.5381 95.3362 13.9324L97.5707 15.1592L98.666 15.7726L99.7613 16.4298L101.908 17.788C102.609 18.2699 103.31 18.7519 103.967 19.2338L105.019 19.9787L105.545 20.3292L106.027 20.7235C110.364 24.0971 114.264 27.9965 117.681 32.2902L117.725 32.3778L119.127 34.4809C120.047 35.8829 120.923 37.3287 121.799 38.7746C124.428 43.2873 126.707 47.9754 128.547 52.8386C128.634 53.1015 128.722 53.3644 128.81 53.6711C129.116 54.4597 129.248 55.2922 129.467 56.1246L130.08 58.5782C130.343 60.2431 130.694 61.908 130.825 63.6167C131.044 65.2816 131.044 66.9903 131.132 68.699C131.088 70.4078 131.132 72.1165 130.956 73.7814C130.913 74.2633 130.913 74.7453 130.869 75.2272C129.73 81.7992 127.977 88.2398 125.48 94.4174L124.516 96.7834L123.421 99.1055C122.72 100.683 121.887 102.129 121.098 103.618C120.704 104.363 120.222 105.064 119.784 105.809L119.127 106.904C118.908 107.255 118.645 107.605 118.426 107.956L116.98 110.059L115.447 112.074C113.343 114.747 111.065 117.288 108.612 119.61C106.859 121.275 104.975 122.765 103.004 124.21C102.609 124.386 102.215 124.517 101.821 124.692C101.032 124.999 100.243 125.262 99.4547 125.525L98.2717 125.919L97.6583 126.138L97.0449 126.314C95.4238 126.708 93.8027 127.234 92.1816 127.54C79.0377 130.257 65.1488 129.862 52.2239 126.27C49.4199 125.35 46.6158 124.386 43.9432 123.203Z" fill="url(#paint2_linear)"/>
<path d="M43.9432 123.203C41.0515 120.618 38.3351 117.77 35.9254 114.747C31.7631 109.577 28.3019 103.837 25.4978 97.7911C24.0958 94.768 22.9128 91.6572 21.9051 88.4588C20.8536 85.3043 20.0211 82.0621 19.4078 78.7761C18.1372 72.2479 17.6552 65.5445 18.0934 58.9287C18.5315 52.3129 19.9773 45.7409 22.4747 39.607C22.6938 39.0374 22.9566 38.4241 23.2195 37.8545C25.7607 36.4963 31.2812 34.218 36.0568 31.2387C40.6572 28.347 44.8195 23.9219 46.572 21.7312C48.3245 19.4967 49.858 16.5612 49.9018 16.2545C49.9456 15.904 50.1647 15.5097 49.9018 15.6411C49.6389 15.7288 38.2037 21.4683 33.1651 24.7981C31.1935 26.1125 29.2657 27.646 27.3818 29.3109C27.2503 29.4423 27.0751 29.5738 26.9436 29.7052C26.5493 30.0557 26.1988 30.4062 25.8045 30.7567C25.6292 30.932 25.454 31.0634 25.2787 31.2387C24.8844 31.5892 24.5339 31.9397 24.1396 32.2902C23.9643 32.4216 23.8329 32.5969 23.6576 32.7283C23.1319 33.2103 22.6061 33.736 22.0804 34.2618C21.7737 34.6123 21.7737 34.6123 21.7737 33.9551C21.7737 33.8237 21.7737 33.736 21.7737 33.6046C21.8175 33.035 21.8613 32.5093 21.9489 31.9835C21.9927 31.633 22.0804 31.2825 22.1242 30.932C22.1242 30.8882 22.1242 30.8005 22.168 30.7567C22.2556 30.4062 22.3432 30.0557 22.4309 29.7052C22.4309 29.6176 22.4747 29.53 22.5185 29.4861C22.6061 29.1356 22.7376 28.7851 22.8252 28.4346C22.869 28.347 22.869 28.3032 22.9128 28.2156C23.0443 27.9089 23.1319 27.6022 23.2633 27.2955C23.3071 27.2517 23.3071 27.164 23.351 27.1202C23.4824 26.8135 23.6138 26.463 23.7891 26.1563C23.8329 26.0687 23.8767 25.9373 23.9205 25.8496C24.052 25.5429 24.2272 25.2363 24.3587 24.9296C24.4025 24.7981 24.4901 24.7105 24.5339 24.5791C24.6653 24.2724 24.8406 24.0095 25.0159 23.7466C25.0597 23.6152 25.1473 23.5275 25.1911 23.3961C25.3225 23.177 25.454 22.9141 25.6292 22.6951C27.8637 19.0586 30.843 15.7288 33.6471 12.8809C37.8093 8.63101 41.4458 5.78315 41.6211 5.69552C41.9278 5.47645 42.5412 5.08213 42.3659 5.38883C40.8763 7.84237 39.5181 10.1207 38.2475 12.3113C37.7655 13.1438 37.2836 13.9324 37.0645 14.3706C36.6264 15.0716 36.2321 15.8164 35.7939 16.5174C35.3996 17.1746 34.3481 18.9271 33.3404 20.6797C32.7708 21.6436 32.1574 22.6513 31.5002 23.7028C30.9307 24.5791 30.4925 25.3239 30.2296 25.8058C30.0544 26.1125 29.9668 26.3316 30.0106 26.3316C30.624 25.7182 31.2373 25.0172 31.8945 24.2285C32.2451 23.878 32.5956 23.5275 33.1213 22.958C37.6341 18.0947 43.0669 14.0639 49.157 11.3036C55.247 8.63101 61.9067 7.2728 68.6101 7.22899C70.275 7.31661 71.9837 7.2728 73.6486 7.49186C74.4811 7.57949 75.3135 7.66712 76.146 7.75474L78.6433 8.19288L79.8701 8.41194L81.0969 8.71864L83.5504 9.33202C84.3829 9.55109 85.1715 9.81397 85.9602 10.0768C86.7488 10.3397 87.5812 10.5588 88.3699 10.9093C89.9472 11.5227 91.5245 12.0923 93.0579 12.8371C93.8027 13.1876 94.5914 13.5381 95.3362 13.9324L97.5707 15.1592L98.666 15.7726L99.7613 16.4298L101.908 17.788C102.609 18.2699 103.31 18.7519 103.967 19.2338L105.019 19.9787L105.545 20.3292L106.027 20.7235C110.364 24.0971 114.264 27.9965 117.681 32.2902L117.725 32.3778L119.127 34.4809C120.047 35.8829 120.923 37.3287 121.799 38.7746C124.428 43.2873 126.707 47.9754 128.547 52.8386C128.634 53.1015 128.722 53.3644 128.81 53.6711C129.116 54.4597 129.248 55.2922 129.467 56.1246L130.08 58.5782C130.343 60.2431 130.694 61.908 130.825 63.6167C131.044 65.2816 131.044 66.9903 131.132 68.699C131.088 70.4078 131.132 72.1165 130.956 73.7814C130.913 74.2633 130.913 74.7453 130.869 75.2272C129.73 81.7992 127.977 88.2398 125.48 94.4174L124.516 96.7834L123.421 99.1055C122.72 100.683 121.887 102.129 121.098 103.618C120.704 104.363 120.222 105.064 119.784 105.809L119.127 106.904C118.908 107.255 118.645 107.605 118.426 107.956L116.98 110.059L115.447 112.074C113.343 114.747 111.065 117.288 108.612 119.61C106.859 121.275 104.975 122.765 103.004 124.21C102.609 124.386 102.215 124.517 101.821 124.692C101.032 124.999 100.243 125.262 99.4547 125.525L98.2717 125.919L97.6583 126.138L97.0449 126.314C95.4238 126.708 93.8027 127.234 92.1816 127.54C79.0377 130.257 65.1488 129.862 52.2239 126.27C49.4199 125.35 46.6158 124.386 43.9432 123.203Z" fill="url(#paint3_linear)"/>
<path d="M43.9432 123.203C41.0515 120.618 38.3351 117.77 35.9254 114.747C31.7631 109.577 28.3019 103.837 25.4978 97.7911C24.0958 94.768 22.9128 91.6572 21.9051 88.4588C20.8536 85.3043 20.0211 82.0621 19.4078 78.7761C18.1372 72.2479 17.6552 65.5445 18.0934 58.9287C18.5315 52.3129 19.9773 45.7409 22.4747 39.607C22.6938 39.0374 22.9566 38.4241 23.2195 37.8545C25.7607 36.4963 31.2812 34.218 36.0568 31.2387C40.6572 28.347 44.8195 23.9219 46.572 21.7312C48.3245 19.4967 49.858 16.5612 49.9018 16.2545C49.9456 15.904 50.1647 15.5097 49.9018 15.6411C49.6389 15.7288 38.2037 21.4683 33.1651 24.7981C31.1935 26.1125 29.2657 27.646 27.3818 29.3109C27.2503 29.4423 27.0751 29.5738 26.9436 29.7052C26.5493 30.0557 26.1988 30.4062 25.8045 30.7567C25.6292 30.932 25.454 31.0634 25.2787 31.2387C24.8844 31.5892 24.5339 31.9397 24.1396 32.2902C23.9643 32.4216 23.8329 32.5969 23.6576 32.7283C23.1319 33.2103 22.6061 33.736 22.0804 34.2618C21.7737 34.6123 21.7737 34.6123 21.7737 33.9551C21.7737 33.8237 21.7737 33.736 21.7737 33.6046C21.8175 33.035 21.8613 32.5093 21.9489 31.9835C21.9927 31.633 22.0804 31.2825 22.1242 30.932C22.1242 30.8882 22.1242 30.8005 22.168 30.7567C22.2556 30.4062 22.3432 30.0557 22.4309 29.7052C22.4309 29.6176 22.4747 29.53 22.5185 29.4861C22.6061 29.1356 22.7376 28.7851 22.8252 28.4346C22.869 28.347 22.869 28.3032 22.9128 28.2156C23.0443 27.9089 23.1319 27.6022 23.2633 27.2955C23.3071 27.2517 23.3071 27.164 23.351 27.1202C23.4824 26.8135 23.6138 26.463 23.7891 26.1563C23.8329 26.0687 23.8767 25.9373 23.9205 25.8496C24.052 25.5429 24.2272 25.2363 24.3587 24.9296C24.4025 24.7981 24.4901 24.7105 24.5339 24.5791C24.6653 24.2724 24.8406 24.0095 25.0159 23.7466C25.0597 23.6152 25.1473 23.5275 25.1911 23.3961C25.3225 23.177 25.454 22.9141 25.6292 22.6951C27.8637 19.0586 30.843 15.7288 33.6471 12.8809C37.8093 8.63101 41.4458 5.78315 41.6211 5.69552C41.9278 5.47645 42.5412 5.08213 42.3659 5.38883C40.8763 7.84237 39.5181 10.1207 38.2475 12.3113C37.7655 13.1438 37.2836 13.9324 37.0645 14.3706C36.6264 15.0716 36.2321 15.8164 35.7939 16.5174C35.3996 17.1746 34.3481 18.9271 33.3404 20.6797C32.7708 21.6436 32.1574 22.6513 31.5002 23.7028C30.9307 24.5791 30.4925 25.3239 30.2296 25.8058C30.0544 26.1125 29.9668 26.3316 30.0106 26.3316C30.624 25.7182 31.2373 25.0172 31.8945 24.2285C32.2451 23.878 32.5956 23.5275 33.1213 22.958C37.6341 18.0947 43.0669 14.0639 49.157 11.3036C55.247 8.63101 61.9067 7.2728 68.6101 7.22899C70.275 7.31661 71.9837 7.2728 73.6486 7.49186C74.4811 7.57949 75.3135 7.66712 76.146 7.75474L78.6433 8.19288L79.8701 8.41194L81.0969 8.71864L83.5504 9.33202C84.3829 9.55109 85.1715 9.81397 85.9602 10.0768C86.7488 10.3397 87.5812 10.5588 88.3699 10.9093C89.9472 11.5227 91.5245 12.0923 93.0579 12.8371C93.8027 13.1876 94.5914 13.5381 95.3362 13.9324L97.5707 15.1592L98.666 15.7726L99.7613 16.4298L101.908 17.788C102.609 18.2699 103.31 18.7519 103.967 19.2338L105.019 19.9787L105.545 20.3292L106.027 20.7235C110.364 24.0971 114.264 27.9965 117.681 32.2902L117.725 32.3778L119.127 34.4809C120.047 35.8829 120.923 37.3287 121.799 38.7746C124.428 43.2873 126.707 47.9754 128.547 52.8386C128.634 53.1015 128.722 53.3644 128.81 53.6711C129.116 54.4597 129.248 55.2922 129.467 56.1246L130.08 58.5782C130.343 60.2431 130.694 61.908 130.825 63.6167C131.044 65.2816 131.044 66.9903 131.132 68.699C131.088 70.4078 131.132 72.1165 130.956 73.7814C130.913 74.2633 130.913 74.7453 130.869 75.2272C129.73 81.7992 127.977 88.2398 125.48 94.4174L124.516 96.7834L123.421 99.1055C122.72 100.683 121.887 102.129 121.098 103.618C120.704 104.363 120.222 105.064 119.784 105.809L119.127 106.904C118.908 107.255 118.645 107.605 118.426 107.956L116.98 110.059L115.447 112.074C113.343 114.747 111.065 117.288 108.612 119.61C106.859 121.275 104.975 122.765 103.004 124.21C102.609 124.386 102.215 124.517 101.821 124.692C101.032 124.999 100.243 125.262 99.4547 125.525L98.2717 125.919L97.6583 126.138L97.0449 126.314C95.4238 126.708 93.8027 127.234 92.1816 127.54C79.0377 130.257 65.1488 129.862 52.2239 126.27C49.4199 125.35 46.6158 124.386 43.9432 123.203Z" fill="url(#paint4_linear)"/>
<g clip-path="url(#clip0)">
<path d="M43.9434 123.203C41.0518 120.618 38.3353 117.77 35.9256 114.747C31.7633 109.577 28.3021 103.837 25.498 97.7911C24.096 94.768 22.9131 91.6572 21.9054 88.4588C20.8538 85.3043 20.0214 82.0621 19.408 78.7761C18.1374 72.2479 17.6555 65.5445 18.0936 58.9287C18.5317 52.3129 19.9776 45.7409 22.4749 39.607C22.694 39.0374 22.9569 38.4241 23.2198 37.8545C25.7609 36.4963 31.2814 34.218 36.0571 31.2387C40.6574 28.347 44.8197 23.9219 46.5722 21.7312C48.3248 19.4967 49.8582 16.5612 49.9021 16.2545C49.9459 15.904 50.1649 15.5097 49.9021 15.6411C49.6392 15.7288 38.2039 21.4683 33.1654 24.7981C31.1938 26.1125 29.266 27.646 27.382 29.3109C27.2506 29.4423 27.0753 29.5738 26.9439 29.7052C26.5496 30.0557 26.1991 30.4062 25.8047 30.7567C25.6295 30.932 25.4542 31.0634 25.279 31.2387C24.8847 31.5892 24.5342 31.9397 24.1398 32.2902C23.9646 32.4216 23.8331 32.5969 23.6579 32.7283C23.1321 33.2103 22.6064 33.736 22.0806 34.2618C21.7739 34.6123 21.7739 34.6123 21.7739 33.9551C21.7739 33.8237 21.7739 33.736 21.7739 33.6046C21.8177 33.035 21.8615 32.5093 21.9492 31.9835C21.993 31.633 22.0806 31.2825 22.1244 30.932C22.1244 30.8882 22.1244 30.8005 22.1682 30.7567C22.2559 30.4062 22.3435 30.0557 22.4311 29.7052C22.4311 29.6176 22.4749 29.53 22.5187 29.4861C22.6064 29.1356 22.7378 28.7851 22.8254 28.4346C22.8693 28.347 22.8692 28.3032 22.9131 28.2156C23.0445 27.9089 23.1321 27.6022 23.2636 27.2955C23.3074 27.2517 23.3074 27.164 23.3512 27.1202C23.4826 26.8135 23.6141 26.463 23.7893 26.1563C23.8331 26.0687 23.877 25.9373 23.9208 25.8496C24.0522 25.5429 24.2275 25.2363 24.3589 24.9296C24.4027 24.7981 24.4903 24.7105 24.5342 24.5791C24.6656 24.2724 24.8408 24.0095 25.0161 23.7466C25.0599 23.6152 25.1475 23.5275 25.1914 23.3961C25.3228 23.177 25.4542 22.9141 25.6295 22.6951C27.864 19.0586 30.8433 15.7288 33.6473 12.8809C37.8096 8.63101 41.4461 5.78315 41.6213 5.69552C41.928 5.47645 42.5414 5.08213 42.3662 5.38883C40.8765 7.84237 39.5183 10.1207 38.2477 12.3113C37.7658 13.1438 37.2838 13.9324 37.0648 14.3706C36.6266 15.0716 36.2323 15.8164 35.7942 16.5174C35.3999 17.1746 34.3483 18.9271 33.3406 20.6797C32.7711 21.6436 32.1577 22.6513 31.5005 23.7028C30.9309 24.5791 30.4928 25.3239 30.2299 25.8058C30.0546 26.1125 29.967 26.3316 30.0108 26.3316C30.6242 25.7182 31.2376 25.0172 31.8948 24.2285C32.2453 23.878 32.5958 23.5275 33.1216 22.958C37.6343 18.0947 43.0672 14.0639 49.1572 11.3036C55.2473 8.63101 61.9069 7.2728 68.6103 7.22899C70.2752 7.31661 71.984 7.2728 73.6489 7.49186C74.4813 7.57949 75.3138 7.66712 76.1462 7.75474L78.6436 8.19288L79.8704 8.41194L81.0971 8.71864L83.5507 9.33202C84.3831 9.55109 85.1718 9.81397 85.9604 10.0768C86.749 10.3397 87.5815 10.5588 88.3701 10.9093C89.9474 11.5227 91.5247 12.0923 93.0582 12.8371C93.803 13.1876 94.5916 13.5381 95.3364 13.9324L97.5709 15.1592L98.6663 15.7726L99.7616 16.4298L101.908 17.788C102.609 18.2699 103.31 18.7519 103.968 19.2338L105.019 19.9787L105.545 20.3292L106.027 20.7235C110.364 24.0971 114.264 27.9965 117.681 32.2902L117.725 32.3778L119.127 34.4809C120.047 35.8829 120.923 37.3287 121.8 38.7746C124.428 43.2873 126.707 47.9754 128.547 52.8386C128.635 53.1015 128.722 53.3644 128.81 53.6711C129.117 54.4597 129.248 55.2922 129.467 56.1246L130.08 58.5782C130.343 60.2431 130.694 61.908 130.825 63.6167C131.044 65.2816 131.044 66.9903 131.132 68.699C131.088 70.4078 131.132 72.1165 130.957 73.7814C130.913 74.2633 130.913 74.7453 130.869 75.2272C129.73 81.7992 127.977 88.2398 125.48 94.4174L124.516 96.7834L123.421 99.1055C122.72 100.683 121.887 102.129 121.099 103.618C120.704 104.363 120.222 105.064 119.784 105.809L119.127 106.904C118.908 107.255 118.645 107.605 118.426 107.956L116.98 110.059L115.447 112.074C113.344 114.747 111.065 117.288 108.612 119.61C106.859 121.275 104.975 122.765 103.004 124.21C102.609 124.386 102.215 124.517 101.821 124.692C101.032 124.999 100.244 125.262 99.4549 125.525L98.2719 125.919L97.6586 126.138L97.0452 126.314C95.4241 126.708 93.803 127.234 92.1819 127.54C79.0379 130.257 65.1491 129.862 52.2242 126.27C49.4201 125.35 46.6161 124.386 43.9434 123.203Z" fill="url(#paint5_radial)"/>
</g>
<path d="M26.9436 29.6613C26.5493 30.0118 26.1988 30.3623 25.8045 30.7128C25.6293 30.888 25.454 31.0195 25.2787 31.1947C24.8844 31.5452 24.5339 31.8957 24.1396 32.2462C23.9643 32.3777 23.8329 32.5529 23.6577 32.6844C23.1319 33.1663 22.6061 33.6921 22.0804 34.2178C21.7737 34.5684 21.7737 34.5684 21.7737 33.9112C21.7737 33.7797 21.7737 33.6921 21.7737 33.5606C21.8175 32.9911 21.8613 32.4653 21.9489 31.9396C21.9927 31.5891 22.0804 31.2385 22.1242 30.888C22.1242 30.8442 22.1242 30.7566 22.168 30.7128C22.2556 30.3623 22.3433 30.0118 22.4309 29.6613C22.4309 29.5736 22.4747 29.486 22.5185 29.4422C22.6061 29.0917 22.7376 28.7412 22.8252 28.3907C22.869 28.3031 22.869 28.2592 22.9128 28.1716C23.0443 27.8649 23.1319 27.5582 23.2633 27.2515C23.3071 27.2077 23.3071 27.1201 23.351 27.0763C23.4824 26.7696 23.6138 26.4191 23.7891 26.1124C23.8329 26.0248 23.8767 25.8933 23.9205 25.8057C24.052 25.499 24.2272 25.1923 24.3587 24.8856C24.4025 24.7542 24.4901 24.6665 24.5339 24.5351C24.6654 24.2284 24.8406 23.9655 25.0159 23.7027C25.0597 23.5712 25.1473 23.4836 25.1911 23.3521C25.3226 23.1331 25.454 22.8702 25.6293 22.6511C27.8637 19.0146 30.843 15.6848 33.6471 12.837C37.8093 8.58707 41.4459 5.7392 41.6211 5.65157C41.9278 5.43251 42.5412 5.03819 42.3659 5.34488C40.8763 7.79843 39.5181 10.0767 38.2475 12.2674C37.7655 13.0998 37.2836 13.8885 37.0645 14.3266C36.6264 15.0276 36.2321 15.7724 35.7939 16.4735C35.3996 17.1307 34.3481 18.8832 33.3404 20.6357C32.7708 21.5996 32.2451 22.6511 31.5879 23.7027C31.0183 24.5789 30.5802 25.2799 30.2735 25.8057C29.7039 26.7696 27.0751 29.5298 26.9436 29.6613Z" fill="#7CE6AF"/>
<path d="M57.7011 45.3909C57.6572 45.2594 57.6572 45.1718 57.6572 45.0404C57.7887 44.0327 57.9201 43.0688 58.0077 42.0172C58.0077 41.7106 58.0077 41.4039 57.8763 41.141C57.8325 40.7905 57.482 40.5714 57.1315 40.659C56.9124 40.7028 56.7372 40.8781 56.6495 41.0972C56.5619 41.2724 56.4743 41.4477 56.4305 41.6229C55.9485 43.4631 55.5104 45.2156 55.0723 47.0558C54.8532 48.0197 54.6779 48.9836 54.5027 49.9036C54.5027 50.1665 54.5465 50.4294 54.6341 50.6923C54.7656 51.0866 55.2037 51.3057 55.598 51.1742C55.7733 51.1304 55.9047 50.999 55.9923 50.8675C56.1676 50.7361 56.2552 50.517 56.299 50.298C57 48.414 58.0516 46.6615 59.0155 44.9089C59.7603 43.6383 60.6365 42.4992 61.6881 41.4915C62.0386 41.1848 62.4329 40.9657 62.871 40.8343V41.0095C62.5643 42.2363 62.4329 43.0688 62.5643 43.5945C62.6081 43.9888 62.9587 44.2517 63.353 44.2517C63.4844 44.2517 63.6158 44.1641 63.7473 44.0765C64.1854 43.6383 64.6236 42.5868 64.7112 42.1925C64.7988 41.7544 64.8864 41.3162 64.8864 40.8781C64.8426 39.958 64.0978 39.0379 62.8272 39.6951C62.6081 39.8704 61.5128 40.4838 60.987 41.0972C59.9793 42.0611 59.1907 43.2878 58.4021 44.427C58.1392 44.6899 57.9201 45.0404 57.7011 45.3909Z" fill="#088B91"/>
<path d="M64.7988 49.1155C65.1493 49.685 65.7189 50.0794 66.3761 50.2108C66.9456 50.3422 67.559 50.2546 68.1286 50.0355C68.8734 49.7289 69.5744 49.3345 70.1878 48.8088C71.327 47.7573 72.4223 46.7057 73.4738 45.5666C73.3424 46.1362 73.211 46.6619 73.1233 47.2315C72.9919 48.1954 73.2548 49.1155 73.8243 49.9041C74.1748 50.4737 74.9197 50.6927 75.5331 50.4737C75.8397 50.3861 76.1464 50.2546 76.4093 50.0355C76.8913 49.7289 77.2856 49.3783 77.7675 49.0278C77.7237 49.2907 77.6799 49.5536 77.6799 49.8165C77.5485 50.8242 77.8113 51.7881 78.5124 52.5329C78.9943 53.1463 79.8268 53.3654 80.5278 53.0587C80.8345 52.971 81.1412 52.7958 81.404 52.5329C83.3756 51.0433 84.9967 48.283 86.7493 44.9532C86.6616 45.2161 86.6178 45.5228 86.5302 45.7857C86.1359 47.4506 86.0482 49.1593 86.2673 50.868C86.3549 51.5252 86.6178 52.1824 87.0559 52.7082C87.4941 53.2777 88.3265 53.3654 88.8961 52.9272L88.9399 52.8834C89.159 52.7082 89.3781 52.5329 89.5533 52.3138C90.6048 51.0433 91.6564 49.3783 92.6202 47.3629C92.7517 48.283 93.0584 48.9402 93.6718 49.466C94.1975 50.0355 94.9862 50.3422 95.731 50.167C96.1691 50.0355 96.6073 49.8165 96.9578 49.5536C97.9655 48.984 98.7103 48.0201 99.4551 47.1C99.9809 46.399 100.638 45.4351 101.208 44.6027C101.076 45.3913 100.945 46.18 100.857 46.9686C100.682 48.0639 100.726 49.2031 100.945 50.3422C101.032 50.6927 101.164 51.0433 101.383 51.3499C101.69 51.8319 102.347 51.9195 102.829 51.6128C102.873 51.569 102.96 51.5252 103.004 51.4814C103.223 51.3061 103.354 51.0871 103.53 50.868C104.012 50.0794 104.45 49.2469 104.932 48.4583C105.37 47.6696 105.72 46.881 106.159 46.1362C107.254 44.1646 108.437 42.2368 109.707 40.3528C109.795 40.2214 109.883 40.0899 109.926 39.9585C109.926 39.827 109.883 39.6956 109.795 39.608C109.664 39.5204 109.532 39.5204 109.401 39.608C109.269 39.6956 109.182 39.827 109.094 40.0023C107.561 42.193 106.115 44.4274 104.8 46.7057C104.406 47.4067 103.968 48.1078 103.574 48.8088C103.442 49.0278 103.311 49.2469 103.135 49.466C103.092 49.4222 103.048 49.4222 103.004 49.4222C102.96 48.3706 103.004 47.3191 103.179 46.3114C103.442 44.5151 103.705 42.7187 104.012 40.9662C104.056 40.7033 104.056 40.4404 104.012 40.1776C103.968 39.827 103.617 39.608 103.267 39.6518C103.135 39.6518 103.048 39.7394 102.96 39.7832C102.785 39.9147 102.61 40.0899 102.522 40.309C102.259 40.8347 102.04 41.4043 101.865 41.9739C101.777 42.2806 101.69 42.5873 101.646 42.894C101.471 43.1569 101.339 43.4197 101.12 43.595C100.025 45.2599 98.7541 46.8372 97.3959 48.283C96.9578 48.6773 96.4758 48.9402 95.9062 49.1155C95.4681 49.2907 94.9862 49.1155 94.8109 48.6773C94.7671 48.6335 94.7671 48.5459 94.7671 48.5021C94.6795 48.0639 94.6795 47.582 94.7671 47.1439C95.03 45.6542 95.5557 44.2522 96.3444 42.9378C96.5634 42.6311 96.6949 42.2806 96.7825 41.9301C96.9578 41.4481 96.6949 40.9224 96.2129 40.7909C95.9939 40.7033 95.7748 40.7471 95.5995 40.7909C95.3367 40.9224 95.1176 41.0538 94.9423 41.2729C94.7233 41.492 94.548 41.7548 94.4166 42.0177C93.8908 42.894 93.4527 43.8579 93.146 44.8656C91.8754 47.6696 90.5172 49.9917 89.2028 51.7004C89.0275 51.8757 88.8523 52.0071 88.677 52.0948C88.4142 52.27 88.2389 52.2262 88.1513 51.9195C88.0637 51.6566 88.0198 51.3499 87.976 51.0432C87.9322 49.7727 88.1075 48.5021 88.5018 47.2753C89.3781 44.3398 90.2543 41.4481 91.1306 38.5565C91.1744 38.2936 91.3935 38.1183 91.6563 38.0745C92.8831 37.8554 94.1975 37.5488 95.4243 37.2859C95.5119 37.2859 95.6434 37.2421 95.731 37.1982C95.8186 37.1544 95.8624 37.0668 95.9062 36.9792C95.8624 36.8916 95.7748 36.8039 95.731 36.7601C95.5996 36.7163 95.5119 36.7163 95.3805 36.7601C94.6795 36.8916 94.0223 36.9792 93.3213 37.1106C92.7955 37.2421 92.1821 37.3297 91.4811 37.4611C91.9192 36.1467 92.2697 34.92 92.6641 33.737C92.7517 33.5617 92.8393 33.3865 92.8393 33.2112C92.9269 32.9045 92.7517 32.5979 92.445 32.5102C92.3135 32.4664 92.1821 32.4664 92.0507 32.554C91.744 32.6855 91.5249 32.8607 91.3058 33.0798C90.8677 33.6056 90.5172 34.1751 90.2981 34.8323C89.9038 35.7524 89.5533 36.7601 89.2028 37.6802C89.1152 37.9431 88.9399 38.1183 88.677 38.206C87.7132 38.425 86.7054 38.7317 85.7415 38.9946C85.391 39.0822 85.0405 39.2575 84.69 39.3889C84.6462 39.4327 84.6024 39.5204 84.5586 39.608C84.6024 39.6956 84.69 39.7394 84.7777 39.7832C84.8653 39.827 84.9967 39.7832 85.0843 39.7394C86.1797 39.4765 87.275 39.1698 88.3703 38.8632C88.5018 38.8193 88.5894 38.8632 88.7647 38.8193C88.677 39.0384 88.6332 39.2137 88.5894 39.3451C88.1951 40.3966 87.8446 41.492 87.5379 42.5873H87.4941C87.4065 42.6749 87.3188 42.8063 87.2312 42.9378C85.2596 45.7857 83.288 49.8165 80.7907 51.7881C80.5716 51.9633 80.2649 52.0948 80.002 51.9633C79.6953 51.7881 79.7829 51.4376 79.8268 51.1747C80.002 49.7727 80.3087 48.3706 80.8345 47.0562C81.3164 46.0047 81.7107 44.9094 82.0612 43.8579C82.1927 43.5074 82.3241 43.2007 82.4556 42.894C82.6308 42.4558 82.8061 42.0615 82.9375 41.6672C83.0689 41.3167 82.8937 40.9224 82.587 40.7471C82.2803 40.5719 81.886 40.5719 81.6231 40.8348C81.404 41.01 81.2288 41.2291 81.0973 41.4481C80.8345 41.8863 80.6154 42.3682 80.3963 42.8502C79.9144 43.8579 79.3886 44.8218 78.9943 45.8733C78.5562 46.9686 77.8113 47.9325 76.9351 48.7211C76.5846 49.0278 76.1464 49.3345 75.7083 49.5536C75.314 49.7289 75.0949 49.5974 75.1387 49.1155V48.8088C75.4892 46.5743 76.2341 44.3836 77.4608 42.4558C77.6361 42.193 77.8113 41.9739 78.0304 41.7986C78.5562 41.3605 78.8191 41.4481 79.1257 42.0177C79.1696 42.193 79.2572 42.412 79.3448 42.5435C79.4763 42.6311 79.6077 42.6749 79.7391 42.6311C79.8706 42.5873 79.9144 42.4558 79.9144 42.3244C79.7391 40.7471 78.6876 40.1775 77.4608 40.5281C76.4531 40.8347 75.5769 41.4919 75.0073 42.412C74.5692 43.0692 74.2187 43.7702 73.9558 44.4713C72.9919 45.479 71.9842 46.4867 70.9765 47.4067C70.4069 47.8887 69.8373 48.3268 69.1801 48.6773C68.6982 48.9402 68.2162 49.1155 67.6905 49.2031C66.639 49.3345 66.2884 48.8964 66.3761 48.0201C66.4199 47.6696 66.4637 47.3629 66.5513 47.0562C66.5951 46.7057 66.8142 46.399 67.1647 46.2676C68.4791 45.5228 69.5744 44.4274 70.2755 43.113C70.5822 42.6749 70.7136 42.1492 70.7574 41.5796C70.8012 40.9662 70.3631 40.4404 69.7935 40.3966C69.7059 40.3966 69.5744 40.3966 69.4868 40.3966C68.9172 40.4404 68.3477 40.7033 67.9095 41.0538C66.2446 42.412 65.0617 44.2522 64.5359 46.3114C64.1416 47.3191 64.273 48.283 64.7988 49.1155ZM69.7059 41.9301C69.3554 43.5074 68.4791 44.6027 67.1647 45.479C67.4276 44.4274 68.9172 42.3244 69.7059 41.9301Z" fill="#088B91"/>
<path d="M96.8259 38.7755C97.1326 38.907 97.5269 38.8193 97.746 38.6003C97.8774 38.4688 97.9651 38.2936 98.0527 38.1183C98.3594 37.3735 98.6661 36.6725 98.9728 35.9277C99.0604 35.6648 99.148 35.4019 99.148 35.139V34.8762C99.0604 34.5695 98.9728 34.2628 98.6223 34.1751C98.3156 34.0875 97.9651 34.2628 97.7898 34.5256C97.6584 34.7009 97.5708 34.92 97.4831 35.139C97.0888 35.8839 96.7383 36.6725 96.4316 37.4611C96.344 37.6364 96.3002 37.8116 96.2563 37.9869C96.3002 38.3374 96.5192 38.6441 96.8259 38.7755Z" fill="#088B91"/>
<path d="M41.3147 53.6717C41.6652 53.7155 41.9719 53.5841 42.1471 53.2774C42.3224 53.0145 42.4538 52.7078 42.5853 52.4012C42.8043 51.8754 43.0234 51.3058 43.3301 50.8239C44.1187 49.4218 44.9512 48.0636 45.7398 46.7054C45.8274 46.6178 45.8713 46.5302 46.0027 46.3549C46.3094 46.8369 46.5723 47.3626 46.7913 47.8884C47.1418 48.5894 47.4047 49.3342 47.6676 50.0352C47.9743 50.9553 48.281 51.8316 48.6315 52.7078C49.1134 53.8032 49.9459 54.6794 50.9536 55.249C52.0927 55.95 53.5824 55.95 54.6777 55.1614C54.9406 54.9861 55.2035 54.8109 55.4226 54.5918C55.8169 54.2413 55.554 53.6717 54.8968 54.1537C54.5901 54.3727 54.2396 54.548 53.8453 54.6356C52.6623 54.9423 52.0927 54.6794 51.4355 53.847C50.7345 52.9269 50.2088 51.9192 49.8583 50.8239C49.5078 49.6847 49.0696 48.5456 48.6315 47.4502C48.3248 46.574 47.799 45.7415 47.1418 45.0843C47.0542 44.9529 46.9228 44.8653 46.8351 44.7338C50.5155 42.1488 55.9921 37.7237 58.4019 34.9635C59.0591 34.0434 58.3142 33.2109 57.5256 34.0434C56.6055 34.9635 49.7268 41.1849 45.0388 44.1204C45.2579 43.0689 45.4331 42.0174 45.6522 41.0097C46.2656 38.5561 46.7475 36.015 47.0104 33.4738C47.0542 33.1671 47.0542 32.8604 47.0104 32.5537C47.0104 32.2908 46.7913 32.0718 46.5285 32.0718C46.2656 32.028 46.0027 32.1594 45.9151 32.4223C45.8274 32.5975 45.7836 32.7728 45.7398 32.9919C45.1702 35.2701 44.6445 37.5046 44.1187 39.7829C43.6368 41.7545 43.1986 43.7261 42.6729 45.6977C42.1033 47.7131 41.4899 49.6409 40.9204 51.6125C40.8327 52.0068 40.7013 52.4011 40.6575 52.7955C40.6575 53.1898 40.9204 53.5841 41.3147 53.6717ZM44.8636 44.8653C45.0388 45.172 45.2141 45.4348 45.3455 45.7415C44.995 46.3111 44.6007 46.8807 44.2502 47.4502C44.2502 47.4502 44.2063 47.4064 44.1625 47.4064C44.4254 46.574 44.6445 45.7415 44.8636 44.8653Z" fill="#088B91"/>
<path d="M55.817 91.3073C55.598 91.3512 55.3789 91.395 55.2037 91.5264C52.3558 92.9723 49.5517 94.4619 46.7477 95.9077C45.6524 96.4335 44.5132 96.9155 43.3741 97.3974C43.0674 97.5288 42.7607 97.6165 42.454 97.7041C41.8406 97.9232 41.1834 97.7041 40.8329 97.1783C40.57 96.8278 40.351 96.4335 40.1319 96.0392C39.4747 94.8124 39.0804 93.4542 39.0366 92.096C38.8613 89.6863 38.6422 87.3203 38.686 84.9106L38.7737 77.7252L38.686 67.1662C38.6422 65.5451 38.3794 63.9678 37.9412 62.3906C37.8098 61.8648 37.6345 61.2952 37.4155 60.8133C37.065 59.9808 36.1887 59.4551 35.2686 59.5427C34.3923 59.5865 33.9542 59.8494 33.7351 60.7695C33.5161 61.5143 33.3408 62.2591 33.2094 63.0478C32.8151 65.7204 32.4646 68.3492 32.0702 70.978C31.7197 73.2563 31.5007 75.5346 31.413 77.8129C31.413 78.4701 31.3692 79.1273 31.3254 79.7845C31.1063 82.939 31.2816 86.1374 31.8512 89.2481C32.3331 91.8331 33.3846 94.2867 34.9619 96.4335C36.4954 98.4927 38.5546 99.5004 41.1396 99.5881C42.8045 99.5881 44.4694 99.1937 45.9591 98.4051C48.2812 97.266 50.6471 96.083 52.9692 94.8562C53.4949 94.5495 54.0207 94.199 54.5465 93.9361C55.3351 93.498 55.9485 92.8408 56.3866 92.0522C56.4742 91.8331 56.6057 91.614 56.3866 91.4388C56.1237 91.2635 55.9485 91.2635 55.817 91.3073Z" fill="#088B91"/>
<path d="M60.7681 74.7459C61.0748 74.2202 61.0748 73.563 60.8557 73.0372C60.4614 72.2924 59.6728 71.8543 58.8403 71.8981C58.0955 71.8543 57.3945 71.9857 57.0878 72.7743C56.7811 73.563 57.3068 74.6583 58.1831 75.0526C58.4898 75.1841 58.7965 75.2717 59.1032 75.3155C60.0671 75.2717 60.549 75.1841 60.7681 74.7459Z" fill="#088B91"/>
<path d="M126.05 63.7926C126.006 63.7049 125.874 63.6611 125.787 63.6611C125.524 63.7488 125.305 63.8364 125.086 63.9678C121.931 65.6765 119.127 66.6404 116.63 66.8595C116.63 61.8648 116.63 58.7979 114.702 55.7747C113.256 53.4964 110.671 53.365 109.182 54.767C107.035 56.9139 106.597 59.2798 105.764 63.5297L105.326 65.6327C104.932 65.7204 105.195 65.6327 104.756 65.7204C104.143 65.7642 103.573 65.808 102.96 65.8956C101.12 66.1147 99.3235 66.7281 97.7463 67.692C97.3081 68.0425 96.87 68.393 96.4757 68.7873C96.0375 69.313 96.3004 70.0141 97.0452 70.2769C97.2643 70.3208 97.4834 70.3646 97.7024 70.3646C98.5787 70.4522 99.4112 70.1893 100.068 69.6197C101.295 68.6997 102.785 68.1301 104.318 68.0425C104.581 67.9987 104.844 67.9987 105.063 68.0425C105.019 68.7435 104.975 69.4007 104.844 70.1017C104.537 72.9934 104.406 75.885 104.537 78.7767C104.625 81.2741 104.888 83.7276 105.238 86.2688C105.326 87.0574 105.457 87.8899 105.589 88.6785C99.8493 93.7609 94.2412 93.7171 93.7593 86.0935C105.238 82.7199 103.88 69.313 94.5041 75.1402C92.3134 76.4546 90.6923 78.5138 89.9037 80.9674C89.3779 82.5009 89.2027 84.1658 89.4655 85.7868C89.5094 86.1812 89.6408 86.5755 89.7284 86.9698C89.8599 87.4079 89.9913 87.8023 90.1227 88.1966C88.896 89.9491 87.2749 91.7455 86.6177 92.1836C86.5301 91.7455 86.4424 91.0006 86.3548 90.7816C85.7852 88.2404 85.0842 85.6992 84.2956 83.1581C84.1641 82.6761 84.0765 82.1503 84.0327 81.6684C83.9889 80.836 84.2518 79.7844 83.9889 78.952C83.7698 78.2072 82.4992 77.5938 81.8858 78.2948C81.4039 78.1633 80.9219 77.9005 80.3962 77.769C77.636 77.1994 75.1824 77.55 73.0356 78.9082C69.4867 81.0988 67.0769 85.3925 67.5151 89.3357C67.5151 89.5986 67.6027 89.8615 67.6465 90.0806C66.0254 93.2351 64.1415 94.3304 62.8709 92.7094C62.3889 92.0522 61.9946 91.3073 61.7317 90.5187C60.8993 88.1528 60.5926 85.743 60.3735 83.3771C60.2859 82.457 60.2859 81.4931 60.2421 80.6607L60.023 79.3901C59.9792 79.171 59.9354 78.952 59.8916 78.7329C59.6287 77.8128 59.0153 77.4623 58.1828 77.6814C57.7885 77.8128 57.438 78.0757 57.2628 78.47C57.0875 78.8644 56.9123 79.2587 56.8246 79.653C56.3427 81.5808 56.0798 83.5962 56.1236 85.5678C56.1236 87.1451 56.3427 88.6785 56.737 90.212C58.3581 96.3459 66.1131 98.8432 68.5228 91.8769C68.9609 92.4027 69.5305 92.797 70.1877 93.1475C76.3216 95.6448 80.6153 91.3073 81.9297 88.9852C82.1049 89.5986 82.1487 90.2558 82.1049 90.8692C82.1049 91.5702 81.9297 94.3743 81.9297 95.1191C81.4039 95.4696 81.1848 95.6448 80.3524 96.2582C78.2055 97.9231 76.0149 99.588 73.9118 101.297C69.9248 104.539 66.8141 108.482 67.9532 113.126C69.7057 119.83 80.9658 119.742 84.1203 113.871C86.8806 108.833 87.4063 101.516 86.7491 94.9438C86.7053 94.4181 86.6615 93.8047 86.6177 93.2351C87.5816 92.4903 89.2027 91.0006 90.5609 89.2919C93.6716 95.8201 100.638 95.0315 105.808 90.1682C106.334 93.0599 107.078 95.9077 107.955 98.668C108.349 100.026 108.919 101.297 109.707 102.48C110.584 103.794 111.723 104.539 113.212 104.583C119.127 104.583 120.748 93.016 121.537 87.2327C121.581 86.926 120.704 86.5317 120.529 86.926C119.478 92.7532 115.754 106.554 113.519 100.683C113.212 99.7195 112.862 98.7118 112.599 97.7479C112.161 96.083 111.767 94.4181 111.328 92.7532C110.759 90.6501 110.496 88.5471 110.145 86.444C110.102 86.0059 110.189 85.6116 110.364 85.2173C112.862 80.5293 114.833 75.6222 115.885 70.2331L116.148 69.0502C119.04 68.393 121.756 67.1662 124.209 65.5013C124.604 65.1946 125.042 65.0194 125.392 64.7127C125.612 64.5812 125.787 64.3621 125.962 64.1869C126.093 63.9678 126.093 63.8802 126.05 63.7926ZM81.6668 87.4518C80.2648 90.4749 75.6644 93.7609 73.9118 91.1321C73.4737 90.3434 73.2108 89.4672 73.1232 88.5909C72.9917 85.524 73.7366 82.6323 75.9272 80.354C76.6721 79.4777 77.7236 78.9082 78.8627 78.7329C79.5199 78.6015 80.2209 78.6453 80.8343 78.8205C81.7106 79.0834 82.0611 79.0834 81.9735 80.3102C81.9297 82.0189 82.0173 83.6838 82.1049 85.3925C82.1049 86.1374 81.9735 86.8384 81.6668 87.4518ZM78.0303 114.967C75.27 117.727 70.4506 116.412 69.9248 112.075C69.4429 108.395 72.8165 104.583 75.3577 102.129C77.5921 100.026 80.8781 97.2659 81.9297 96.3897C81.5791 101.91 80.4838 112.031 78.0303 114.967ZM96.6509 75.7974C102.61 71.3723 103.135 82.2818 93.7154 85.2173C93.6716 82.1503 94.2412 77.5938 96.6509 75.7974ZM109.795 82.0189C109.707 81.7122 109.62 80.354 109.576 80.2226C109.313 76.5861 109.05 73.1686 109.225 69.795L109.269 68.6997C110.277 69.0502 113.169 69.1816 113.87 69.0502C113.957 71.8104 110.803 80.836 109.795 82.0189ZM114.395 66.6843C113.519 66.9471 110.102 66.5966 109.313 66.3776L109.444 64.3183C109.663 62.04 110.102 59.7618 110.759 57.5711C111.723 54.2851 112.687 54.8985 113.957 58.6664C114.176 59.3674 114.351 60.1123 114.439 60.8133C114.702 62.6096 114.571 64.9755 114.395 66.6843Z" fill="#088B91"/>
<path d="M56.8246 45.3909C56.7808 45.2594 56.7808 45.1718 56.7808 45.0404C56.9122 44.0327 57.0437 43.0688 57.1313 42.0172C57.1313 41.7106 57.1313 41.4039 56.9998 41.141C56.956 40.7905 56.6055 40.5714 56.255 40.659C56.036 40.7028 55.8607 40.8781 55.7731 41.0972C55.6854 41.2724 55.5978 41.4477 55.554 41.6229C55.0721 43.4631 54.6339 45.2156 54.1958 47.0558C53.9767 48.0197 53.8015 48.9836 53.6262 49.9036C53.6262 50.1665 53.67 50.4294 53.7577 50.6923C53.8891 51.0866 54.3272 51.3057 54.7216 51.1742C54.8968 51.1304 55.0282 50.999 55.1159 50.8675C55.2911 50.7361 55.3787 50.517 55.4226 50.298C56.1236 48.414 57.1751 46.6615 58.139 44.9089C58.8838 43.6383 59.7601 42.4992 60.8116 41.4915C61.1621 41.1848 61.5564 40.9657 61.9946 40.8343V41.0095C61.6879 42.2363 61.5564 43.0688 61.6879 43.5945C61.7317 43.9888 62.0822 44.2517 62.4765 44.2517C62.6079 44.2517 62.7394 44.1641 62.8708 44.0765C63.309 43.6383 63.7471 42.5868 63.8347 42.1925C63.9223 41.7544 64.01 41.3162 64.01 40.8781C63.9662 39.958 63.2213 39.0379 61.9507 39.6951C61.7317 39.8704 60.6363 40.4838 60.1106 41.0972C59.1029 42.0611 58.3142 43.2878 57.5256 44.427C57.2627 44.6899 57.0437 45.0404 56.8246 45.3909Z" fill="white"/>
<path d="M63.9223 49.1155C64.2728 49.685 64.8424 50.0794 65.4996 50.2108C66.0692 50.3422 66.6826 50.2546 67.2521 50.0355C67.997 49.7289 68.698 49.3345 69.3114 48.8088C70.4505 47.7573 71.5458 46.7057 72.5974 45.5666C72.4659 46.1362 72.3345 46.6619 72.2469 47.2315C72.1154 48.1954 72.3783 49.1155 72.9479 49.9041C73.2984 50.4737 74.0432 50.6927 74.6566 50.4737C74.9633 50.3861 75.27 50.2546 75.5329 50.0355C76.0148 49.7289 76.4091 49.3783 76.8911 49.0278C76.8473 49.2907 76.8034 49.5536 76.8034 49.8165C76.672 50.8242 76.9349 51.7881 77.6359 52.5329C78.1178 53.1463 78.9503 53.3654 79.6513 53.0587C79.958 52.971 80.2647 52.7958 80.5276 52.5329C82.4992 51.0433 84.1203 48.283 85.8728 44.9532C85.7852 45.2161 85.7414 45.5228 85.6537 45.7857C85.2594 47.4506 85.1718 49.1593 85.3908 50.868C85.4785 51.5252 85.7414 52.1824 86.1795 52.7082C86.6176 53.2777 87.4501 53.3654 88.0196 52.9272L88.0635 52.8834C88.2825 52.7082 88.5016 52.5329 88.6768 52.3138C89.7284 51.0433 90.7799 49.3783 91.7438 47.3629C91.8752 48.283 92.1819 48.9402 92.7953 49.466C93.3211 50.0355 94.1097 50.3422 94.8545 50.167C95.2927 50.0355 95.7308 49.8165 96.0813 49.5536C97.089 48.984 97.8338 48.0201 98.5787 47.1C99.1044 46.399 99.7616 45.4351 100.331 44.6027C100.2 45.3913 100.068 46.18 99.9807 46.9686C99.8054 48.0639 99.8492 49.2031 100.068 50.3422C100.156 50.6927 100.287 51.0433 100.506 51.3499C100.813 51.8319 101.47 51.9195 101.952 51.6128C101.996 51.569 102.084 51.5252 102.128 51.4814C102.347 51.3061 102.478 51.0871 102.653 50.868C103.135 50.0794 103.573 49.2469 104.055 48.4583C104.493 47.6696 104.844 46.881 105.282 46.1362C106.377 44.1646 107.56 42.2368 108.831 40.3528C108.919 40.2214 109.006 40.0899 109.05 39.9585C109.05 39.827 109.006 39.6956 108.919 39.608C108.787 39.5204 108.656 39.5204 108.524 39.608C108.393 39.6956 108.305 39.827 108.218 40.0023C106.684 42.193 105.238 44.4274 103.924 46.7057C103.53 47.4067 103.091 48.1078 102.697 48.8088C102.566 49.0278 102.434 49.2469 102.259 49.466C102.215 49.4222 102.171 49.4222 102.128 49.4222C102.084 48.3706 102.128 47.3191 102.303 46.3114C102.566 44.5151 102.829 42.7187 103.135 40.9662C103.179 40.7033 103.179 40.4404 103.135 40.1776C103.091 39.827 102.741 39.608 102.39 39.6518C102.259 39.6518 102.171 39.7394 102.084 39.7832C101.908 39.9147 101.733 40.0899 101.646 40.309C101.383 40.8347 101.164 41.4043 100.988 41.9739C100.901 42.2806 100.813 42.5873 100.769 42.894C100.594 43.1569 100.463 43.4197 100.244 43.595C99.1482 45.2599 97.8776 46.8372 96.5194 48.283C96.0813 48.6773 95.5993 48.9402 95.0298 49.1155C94.5916 49.2907 94.1097 49.1155 93.9344 48.6773C93.8906 48.6335 93.8906 48.5459 93.8906 48.5021C93.803 48.0639 93.803 47.582 93.8906 47.1439C94.1535 45.6542 94.6793 44.2522 95.4679 42.9378C95.687 42.6311 95.8184 42.2806 95.906 41.9301C96.0813 41.4481 95.8184 40.9224 95.3365 40.7909C95.1174 40.7033 94.8983 40.7471 94.7231 40.7909C94.4602 40.9224 94.2411 41.0538 94.0659 41.2729C93.8468 41.492 93.6716 41.7548 93.5401 42.0177C93.0144 42.894 92.5762 43.8579 92.2695 44.8656C90.999 47.6696 89.6407 49.9917 88.3263 51.7004C88.1511 51.8757 87.9758 52.0071 87.8006 52.0948C87.5377 52.27 87.3624 52.2262 87.2748 51.9195C87.1872 51.6566 87.1434 51.3499 87.0996 51.0432C87.0558 49.7727 87.231 48.5021 87.6253 47.2753C88.5016 44.3398 89.3779 41.4481 90.2541 38.5565C90.2979 38.2936 90.517 38.1183 90.7799 38.0745C92.0067 37.8554 93.3211 37.5488 94.5478 37.2859C94.6355 37.2859 94.7669 37.2421 94.8545 37.1982C94.9422 37.1544 94.986 37.0668 95.0298 36.9792C94.986 36.8916 94.8983 36.8039 94.8545 36.7601C94.7231 36.7163 94.6355 36.7163 94.504 36.7601C93.803 36.8916 93.1458 36.9792 92.4448 37.1106C91.919 37.2421 91.3056 37.3297 90.6046 37.4611C91.0428 36.1467 91.3933 34.92 91.7876 33.737C91.8752 33.5617 91.9628 33.3865 91.9628 33.2112C92.0505 32.9045 91.8752 32.5979 91.5685 32.5102C91.4371 32.4664 91.3056 32.4664 91.1742 32.554C90.8675 32.6855 90.6484 32.8607 90.4294 33.0798C89.9912 33.6056 89.6407 34.1751 89.4217 34.8323C89.0274 35.7524 88.6768 36.7601 88.3263 37.6802C88.2387 37.9431 88.0635 38.1183 87.8006 38.206C86.8367 38.425 85.829 38.7317 84.8651 38.9946C84.5146 39.0822 84.1641 39.2575 83.8136 39.3889C83.7698 39.4327 83.7259 39.5204 83.6821 39.608C83.7259 39.6956 83.8136 39.7394 83.9012 39.7832C83.9888 39.827 84.1203 39.7832 84.2079 39.7394C85.3032 39.4765 86.3986 39.1698 87.4939 38.8632C87.6253 38.8193 87.713 38.8632 87.8882 38.8193C87.8006 39.0384 87.7568 39.2137 87.7129 39.3451C87.3186 40.3966 86.9681 41.492 86.6614 42.5873H86.6176C86.53 42.6749 86.4424 42.8063 86.3547 42.9378C84.3831 45.7857 82.4115 49.8165 79.9142 51.7881C79.6951 51.9633 79.3884 52.0948 79.1255 51.9633C78.8189 51.7881 78.9065 51.4376 78.9503 51.1747C79.1255 49.7727 79.4322 48.3706 79.958 47.0562C80.4399 46.0047 80.8343 44.9094 81.1848 43.8579C81.3162 43.5074 81.4476 43.2007 81.5791 42.894C81.7543 42.4558 81.9296 42.0615 82.061 41.6672C82.1925 41.3167 82.0172 40.9224 81.7105 40.7471C81.4038 40.5719 81.0095 40.5719 80.7466 40.8348C80.5276 41.01 80.3523 41.2291 80.2209 41.4481C79.958 41.8863 79.7389 42.3682 79.5199 42.8502C79.0379 43.8579 78.5122 44.8218 78.1178 45.8733C77.6797 46.9686 76.9349 47.9325 76.0586 48.7211C75.7081 49.0278 75.27 49.3345 74.8318 49.5536C74.4375 49.7289 74.2185 49.5974 74.2623 49.1155V48.8088C74.6128 46.5743 75.3576 44.3836 76.5844 42.4558C76.7596 42.193 76.9349 41.9739 77.1539 41.7986C77.6797 41.3605 77.9426 41.4481 78.2493 42.0177C78.2931 42.193 78.3807 42.412 78.4683 42.5435C78.5998 42.6311 78.7312 42.6749 78.8627 42.6311C78.9941 42.5873 79.0379 42.4558 79.0379 42.3244C78.8627 40.7471 77.8111 40.1775 76.5844 40.5281C75.5767 40.8347 74.7004 41.4919 74.1308 42.412C73.6927 43.0692 73.3422 43.7702 73.0793 44.4713C72.1154 45.479 71.1077 46.4867 70.1 47.4067C69.5304 47.8887 68.9609 48.3268 68.3037 48.6773C67.8217 48.9402 67.3398 49.1155 66.814 49.2031C65.7625 49.3345 65.412 48.8964 65.4996 48.0201C65.5434 47.6696 65.5872 47.3629 65.6749 47.0562C65.7187 46.7057 65.9377 46.399 66.2882 46.2676C67.6026 45.5228 68.698 44.4274 69.399 43.113C69.7057 42.6749 69.8371 42.1492 69.8809 41.5796C69.9248 40.9662 69.4866 40.4404 68.917 40.3966C68.8294 40.3966 68.698 40.3966 68.6104 40.3966C68.0408 40.4404 67.4712 40.7033 67.0331 41.0538C65.3682 42.412 64.1852 44.2522 63.6594 46.3114C63.2651 47.3191 63.3966 48.283 63.9223 49.1155ZM68.8294 41.9301C68.4789 43.5074 67.6026 44.6027 66.2882 45.479C66.5511 44.4274 68.0408 42.3244 68.8294 41.9301Z" fill="white"/>
<path d="M95.9495 38.7755C96.2562 38.907 96.6505 38.8193 96.8695 38.6003C97.001 38.4688 97.0886 38.2936 97.1762 38.1183C97.4829 37.3735 97.7896 36.6725 98.0963 35.9277C98.1839 35.6648 98.2716 35.4019 98.2716 35.139V34.8762C98.1839 34.5695 98.0963 34.2628 97.7458 34.1751C97.4391 34.0875 97.0886 34.2628 96.9133 34.5256C96.7819 34.7009 96.6943 34.92 96.6067 35.139C96.2123 35.8839 95.8618 36.6725 95.5551 37.4611C95.4675 37.6364 95.4237 37.8116 95.3799 37.9869C95.4237 38.3374 95.6428 38.6441 95.9495 38.7755Z" fill="white"/>
<path d="M40.4382 53.6717C40.7887 53.7155 41.0954 53.5841 41.2707 53.2774C41.4459 53.0145 41.5773 52.7078 41.7088 52.4012C41.9279 51.8754 42.1469 51.3058 42.4536 50.8239C43.2423 49.4218 44.0747 48.0636 44.8634 46.7054C44.951 46.6178 44.9948 46.5302 45.1262 46.3549C45.4329 46.8369 45.6958 47.3626 45.9149 47.8884C46.2654 48.5894 46.5283 49.3342 46.7911 50.0352C47.0978 50.9553 47.4045 51.8316 47.755 52.7078C48.237 53.8032 49.0694 54.6794 50.0771 55.249C51.2163 55.95 52.7059 55.95 53.8013 55.1614C54.0641 54.9861 54.327 54.8109 54.5461 54.5918C54.9404 54.2413 54.6775 53.6717 54.0203 54.1537C53.7136 54.3727 53.3631 54.548 52.9688 54.6356C51.7859 54.9423 51.2163 54.6794 50.5591 53.847C49.8581 52.9269 49.3323 51.9192 48.9818 50.8239C48.6313 49.6847 48.1932 48.5456 47.755 47.4502C47.4483 46.574 46.9226 45.7415 46.2654 45.0843C46.1777 44.9529 46.0463 44.8653 45.9587 44.7338C49.639 42.1488 55.1157 37.7237 57.5254 34.9635C58.1826 34.0434 57.4378 33.2109 56.6491 34.0434C55.729 34.9635 48.8504 41.1849 44.1623 44.1204C44.3814 43.0689 44.5567 42.0174 44.7757 41.0097C45.3891 38.5561 45.8711 36.015 46.1339 33.4738C46.1777 33.1671 46.1777 32.8604 46.1339 32.5537C46.1339 32.2908 45.9149 32.0718 45.652 32.0718C45.3891 32.028 45.1262 32.1594 45.0386 32.4223C44.951 32.5975 44.9072 32.7728 44.8634 32.9919C44.2938 35.2701 43.768 37.5046 43.2423 39.7829C42.7603 41.7545 42.3222 43.7261 41.7964 45.6977C41.2268 47.7131 40.6135 49.6409 40.0439 51.6125C39.9563 52.0068 39.8248 52.4011 39.781 52.7955C39.781 53.1898 40.0439 53.5841 40.4382 53.6717ZM43.9871 44.8653C44.1623 45.172 44.3376 45.4348 44.469 45.7415C44.1185 46.3111 43.7242 46.8807 43.3737 47.4502C43.3737 47.4502 43.3299 47.4064 43.2861 47.4064C43.5489 46.574 43.768 45.7415 43.9871 44.8653Z" fill="white"/>
<path d="M54.9403 91.3073C54.7213 91.3512 54.5022 91.395 54.3269 91.5264C51.4791 92.9723 48.675 94.4619 45.871 95.9077C44.7756 96.4335 43.6365 96.9155 42.4974 97.3974C42.1907 97.5288 41.884 97.6165 41.5773 97.7041C40.9639 97.9232 40.3067 97.7041 39.9562 97.1783C39.6933 96.8278 39.4742 96.4335 39.2552 96.0392C38.598 94.8124 38.2037 93.4542 38.1598 92.096C37.9846 89.6863 37.7655 87.3203 37.8093 84.9106L37.897 77.7252L37.8093 67.1662C37.7655 65.5451 37.5026 63.9678 37.0645 62.3906C36.9331 61.8648 36.7578 61.2952 36.5387 60.8133C36.1882 59.9808 35.312 59.4551 34.3919 59.5427C33.5156 59.5865 33.0775 59.8494 32.8584 60.7695C32.6394 61.5143 32.4641 62.2591 32.3327 63.0478C31.9384 65.7204 31.5878 68.3492 31.1935 70.978C30.843 73.2563 30.624 75.5346 30.5363 77.8129C30.5363 78.4701 30.4925 79.1273 30.4487 79.7845C30.2296 82.939 30.4049 86.1374 30.9745 89.2481C31.4564 91.8331 32.5079 94.2867 34.0852 96.4335C35.6187 98.4927 37.6779 99.5004 40.2629 99.5881C41.9278 99.5881 43.5927 99.1937 45.0823 98.4051C47.4044 97.266 49.7704 96.083 52.0925 94.8562C52.6182 94.5495 53.144 94.199 53.6697 93.9361C54.4584 93.498 55.0718 92.8408 55.5099 92.0522C55.5975 91.8331 55.729 91.614 55.5099 91.4388C55.247 91.2635 55.0718 91.2635 54.9403 91.3073Z" fill="white"/>
<path d="M59.8914 74.7459C60.1981 74.2202 60.1981 73.563 59.979 73.0372C59.5847 72.2924 58.7961 71.8543 57.9636 71.8981C57.2188 71.8543 56.5178 71.9857 56.2111 72.7743C55.9044 73.563 56.4301 74.6583 57.3064 75.0526C57.6131 75.1841 57.9198 75.2717 58.2265 75.3155C59.1904 75.2717 59.6723 75.1841 59.8914 74.7459Z" fill="white"/>
<path d="M125.173 63.7926C125.129 63.7049 124.998 63.6611 124.91 63.6611C124.647 63.7488 124.428 63.8364 124.209 63.9678C121.055 65.6765 118.251 66.6404 115.753 66.8595C115.753 61.8648 115.753 58.7979 113.826 55.7747C112.38 53.4964 109.795 53.365 108.305 54.767C106.158 56.9139 105.72 59.2798 104.888 63.5297L104.449 65.6327C104.055 65.7204 104.318 65.6327 103.88 65.7204C103.267 65.7642 102.697 65.808 102.084 65.8956C100.243 66.1147 98.4471 66.7281 96.8698 67.692C96.4317 68.0425 95.9935 68.393 95.5992 68.7873C95.1611 69.313 95.424 70.0141 96.1688 70.2769C96.3879 70.3208 96.6069 70.3646 96.826 70.3646C97.7023 70.4522 98.5347 70.1893 99.1919 69.6197C100.419 68.6997 101.908 68.1301 103.442 68.0425C103.705 67.9987 103.968 67.9987 104.187 68.0425C104.143 68.7435 104.099 69.4007 103.968 70.1017C103.661 72.9934 103.529 75.885 103.661 78.7767C103.748 81.2741 104.011 83.7276 104.362 86.2688C104.449 87.0574 104.581 87.8899 104.712 88.6785C98.9728 93.7609 93.3647 93.7171 92.8828 86.0935C104.362 82.7199 103.004 69.313 93.6276 75.1402C91.4369 76.4546 89.8158 78.5138 89.0272 80.9674C88.5014 82.5009 88.3262 84.1658 88.5891 85.7868C88.6329 86.1812 88.7643 86.5755 88.852 86.9698C88.9834 87.4079 89.1148 87.8023 89.2463 88.1966C88.0195 89.9491 86.3984 91.7455 85.7412 92.1836C85.6536 91.7455 85.566 91.0006 85.4783 90.7816C84.9088 88.2404 84.2078 85.6992 83.4191 83.1581C83.2877 82.6761 83.2 82.1503 83.1562 81.6684C83.1124 80.836 83.3753 79.7844 83.1124 78.952C82.8933 78.2072 81.6228 77.5938 81.0094 78.2948C80.5274 78.1633 80.0455 77.9005 79.5197 77.769C76.7595 77.1994 74.3059 77.55 72.1591 78.9082C68.6102 81.0988 66.2005 85.3925 66.6386 89.3357C66.6386 89.5986 66.7262 89.8615 66.7701 90.0806C65.149 93.2351 63.265 94.3304 61.9944 92.7094C61.5125 92.0522 61.1181 91.3073 60.8553 90.5187C60.0228 88.1528 59.7161 85.743 59.497 83.3771C59.4094 82.457 59.4094 81.4931 59.3656 80.6607L59.1465 79.3901C59.1027 79.171 59.0589 78.952 59.0151 78.7329C58.7522 77.8128 58.1388 77.4623 57.3064 77.6814C56.9121 77.8128 56.5616 78.0757 56.3863 78.47C56.211 78.8644 56.0358 79.2587 55.9482 79.653C55.4662 81.5808 55.2033 83.5962 55.2472 85.5678C55.2472 87.1451 55.4662 88.6785 55.8605 90.212C57.4816 96.3459 65.2366 98.8432 67.6463 91.8769C68.0845 92.4027 68.654 92.797 69.3112 93.1475C75.4451 95.6448 79.7388 91.3073 81.0532 88.9852C81.2284 89.5986 81.2723 90.2558 81.2284 90.8692C81.2284 91.5702 81.0532 94.3743 81.0532 95.1191C80.5274 95.4696 80.3084 95.6448 79.4759 96.2582C77.3291 97.9231 75.1384 99.588 73.0354 101.297C69.0483 104.539 65.9376 108.482 67.0767 113.126C68.8293 119.83 80.0893 119.742 83.2439 113.871C86.0041 108.833 86.5299 101.516 85.8727 94.9438C85.8288 94.4181 85.785 93.8047 85.7412 93.2351C86.7051 92.4903 88.3262 91.0006 89.6844 89.2919C92.7952 95.8201 99.7615 95.0315 104.931 90.1682C105.457 93.0599 106.202 95.9077 107.078 98.668C107.473 100.026 108.042 101.297 108.831 102.48C109.707 103.794 110.846 104.539 112.336 104.583C118.251 104.583 119.872 93.016 120.66 87.2327C120.704 86.926 119.828 86.5317 119.653 86.926C118.601 92.7532 114.877 106.554 112.643 100.683C112.336 99.7195 111.985 98.7118 111.723 97.7479C111.284 96.083 110.89 94.4181 110.452 92.7532C109.882 90.6501 109.619 88.5471 109.269 86.444C109.225 86.0059 109.313 85.6116 109.488 85.2173C111.985 80.5293 113.957 75.6222 115.009 70.2331L115.271 69.0502C118.163 68.393 120.879 67.1662 123.333 65.5013C123.727 65.1946 124.165 65.0194 124.516 64.7127C124.735 64.5812 124.91 64.3621 125.086 64.1869C125.217 63.9678 125.217 63.8802 125.173 63.7926ZM80.7903 87.4518C79.3883 90.4749 74.7879 93.7609 73.0354 91.1321C72.5972 90.3434 72.3343 89.4672 72.2467 88.5909C72.1153 85.524 72.8601 82.6323 75.0508 80.354C75.7956 79.4777 76.8471 78.9082 77.9863 78.7329C78.6435 78.6015 79.3445 78.6453 79.9579 78.8205C80.8341 79.0834 81.1846 79.0834 81.097 80.3102C81.0532 82.0189 81.1408 83.6838 81.2284 85.3925C81.2284 86.1374 81.097 86.8384 80.7903 87.4518ZM77.1538 114.967C74.3936 117.727 69.5741 116.412 69.0483 112.075C68.5664 108.395 71.94 104.583 74.4812 102.129C76.7157 100.026 80.0017 97.2659 81.0532 96.3897C80.7027 101.91 79.6074 112.031 77.1538 114.967ZM95.7745 75.7974C101.733 71.3723 102.259 82.2818 92.839 85.2173C92.7952 82.1503 93.3647 77.5938 95.7745 75.7974ZM108.918 82.0189C108.831 81.7122 108.743 80.354 108.699 80.2226C108.436 76.5861 108.174 73.1686 108.349 69.795L108.393 68.6997C109.4 69.0502 112.292 69.1816 112.993 69.0502C113.081 71.8104 109.926 80.836 108.918 82.0189ZM113.519 66.6843C112.643 66.9471 109.225 66.5966 108.437 66.3776L108.568 64.3183C108.787 62.04 109.225 59.7618 109.882 57.5711C110.846 54.2851 111.81 54.8985 113.081 58.6664C113.3 59.3674 113.475 60.1123 113.563 60.8133C113.826 62.6096 113.694 64.9755 113.519 66.6843Z" fill="white"/>
<path d="M144.495 60.6376C144.451 57.1764 143.969 53.7151 143.312 50.3415L142.742 47.8003C142.567 46.9679 142.26 46.1354 142.041 45.303C141.603 43.6381 140.902 42.017 140.333 40.3959C140.026 39.6072 139.632 38.8186 139.281 38.0299L138.755 36.847C138.58 36.4527 138.361 36.1022 138.142 35.7078L136.871 33.4296C136.433 32.6847 135.907 31.9837 135.469 31.2389L134.768 30.1436C134.505 29.793 134.243 29.4425 133.98 29.092L132.402 27.0328C131.833 26.3756 131.263 25.7184 130.694 25.105C130.124 24.4478 129.555 23.7906 128.941 23.2211L127.101 21.4247L125.173 19.6722C124.867 19.3655 124.516 19.1026 124.209 18.7959L123.202 17.9635C122.544 17.4377 121.887 16.8681 121.186 16.3424C118.47 14.2393 115.578 12.3554 112.555 10.6466C109.576 8.93791 106.421 7.53589 103.179 6.2653C99.9806 5.03853 96.6508 4.07464 93.2771 3.37362C90.9988 2.89168 88.7206 2.54117 86.4423 2.3221C86.1794 2.23448 85.9603 2.14685 85.6974 2.10304L84.4268 1.75253L83.1563 1.40202L82.5429 1.22677L81.8857 1.09533C80.177 0.788639 78.4682 0.350506 76.7157 0.262879C75.8394 0.175253 74.9632 0.0438126 74.1307 0.0438126L71.5019 0H70.1875L68.8731 0.0876253L66.2881 0.262879C65.4119 0.306692 64.5794 0.525759 63.7032 0.613385C62.8269 0.744825 61.9944 0.876265 61.1182 1.05152L58.577 1.62109C57.7445 1.84016 56.8683 1.9716 56.0796 2.27829C51.3478 3.59269 46.7474 5.47666 42.4975 7.97402C43.4176 6.2653 44.0748 4.90709 44.2939 4.20608C44.5129 3.6365 44.1186 1.62109 43.33 2.6288C42.5413 3.6365 38.2914 6.65962 35.7503 8.63122C30.405 12.7497 25.1913 19.5407 22.6501 26.6385C21.3795 28.4786 20.1527 30.4064 19.0574 32.378C18.4878 33.1667 17.9183 33.9991 17.3487 34.7878C17.0858 28.5663 16.341 23.3525 15.1142 18.7083C14.2379 15.4223 13.274 9.90181 11.6968 9.33223C11.2148 9.77037 10.2947 16.8681 9.81279 20.6799C8.8489 28.3472 8.98034 39.0815 10.3386 48.0194C9.90042 49.1585 9.46229 50.3415 9.06797 51.5244C6.96493 45.1277 4.42375 39.4758 0.349117 34.8316C-0.833842 35.1821 1.05013 43.419 5.08095 52.1816C5.86959 53.8465 6.65823 55.3362 7.5345 56.8259C7.35925 57.6145 7.14018 58.4031 7.00874 59.2356C5.65053 65.9828 5.34383 72.9492 6.30773 79.7402C7.31543 86.5313 9.5061 93.1909 13.0112 99.1057C14.7637 102.085 16.7791 104.845 19.0136 107.474C19.5393 108.131 20.1527 108.788 20.7223 109.402C21.2919 110.015 21.8614 110.672 22.4748 111.286C23.7016 112.513 24.8408 113.739 26.1113 114.922C26.7247 115.492 27.3381 116.105 27.9953 116.675L29.9231 118.34L30.887 119.172L31.8947 119.961L33.9101 121.538C36.6703 123.554 39.4744 125.525 42.4975 127.19C43.3738 127.716 44.25 128.198 45.1701 128.636C46.3093 129.468 47.4484 130.257 48.6314 131.046C54.5024 134.814 61.1182 137.618 67.9969 138.976C74.8755 140.378 81.9733 140.29 88.8082 139.02C89.6844 138.844 90.5169 138.713 91.3493 138.494C92.1818 138.275 93.0581 138.1 93.8905 137.837L95.1611 137.486L96.3879 137.048C97.2203 136.785 98.009 136.391 98.8414 136.084C102.04 134.682 105.063 132.93 107.911 130.87C110.715 128.811 113.3 126.489 115.666 123.948C118.075 121.45 120.222 118.734 122.194 115.886C123.289 114.265 124.341 112.644 125.305 110.935C126.049 110.103 126.794 109.27 127.539 108.438C131.964 103.137 135.688 97.2217 138.405 90.8688C139.851 87.7142 140.946 84.4282 141.91 81.1422C142.348 79.4773 142.83 77.8124 143.093 76.1037C143.268 75.2713 143.443 74.395 143.575 73.5625L143.925 70.9776C144.057 70.1451 144.101 69.2688 144.188 68.3926C144.232 67.5163 144.363 66.6839 144.363 65.8076C144.495 64.0989 144.583 62.3901 144.495 60.6376ZM82.7181 3.6365L83.7258 3.9432L84.9088 4.2937C85.3031 4.38133 85.6974 4.51277 86.0918 4.68802C87.6252 5.30141 89.2463 5.82717 90.6921 6.61581C91.437 7.01013 92.1818 7.31682 92.9266 7.71114L95.0735 8.98173C100.813 12.443 105.72 17.131 110.058 22.2572L111.679 24.1849L113.212 26.2004C113.256 26.2442 113.3 26.3318 113.344 26.3756C111.197 24.1411 108.918 22.0381 106.465 20.0665C101.12 15.729 95.1173 12.3115 88.7206 9.72655C87.9319 9.37605 87.0995 9.11317 86.3108 8.85029C85.4784 8.58741 84.6897 8.28071 83.8573 8.01783L81.3599 7.36063L80.0893 7.01013L78.8187 6.74725L76.2776 6.2653C75.4451 6.13386 74.5688 6.04624 73.6926 5.9148C71.9839 5.65192 70.2313 5.65192 68.5226 5.52048C66.1567 5.47666 63.7908 5.56429 61.4249 5.82717C61.863 5.69573 62.2573 5.6081 62.6954 5.47666C65.9814 4.68802 69.3113 4.11845 72.6849 3.81176C76.0585 3.50506 79.3883 3.46125 82.7181 3.6365ZM56.6054 4.51277C57.394 4.24989 58.2265 4.07464 59.0151 3.89938L61.4687 3.32981C62.3011 3.15456 63.1336 3.06693 63.9222 2.93549C64.7547 2.80405 65.5871 2.6288 66.4196 2.58498L68.9169 2.40973L70.1437 2.3221H71.3705L73.8678 2.36592C73.9117 2.36592 73.9117 2.36592 73.9555 2.36592C73.4735 2.40973 73.0354 2.45354 72.5534 2.49736C69.136 2.84786 65.7186 3.41744 62.3888 4.24989C59.0589 5.08234 55.7729 6.13386 52.5746 7.36063C50.822 8.06165 49.1133 8.80647 47.4046 9.59511C45.2139 10.559 43.1547 11.6543 41.1393 12.9249C40.3069 13.4069 39.4744 13.9326 38.6858 14.4146C39.1239 13.7136 39.562 13.0126 39.9563 12.3115C45.0387 8.76266 50.6468 6.17768 56.6054 4.51277ZM17.3925 40.9216C18.4878 38.4681 19.6708 36.0583 20.9852 33.6924C20.9414 34.2182 20.8976 34.7439 20.8976 35.2697C20.3718 36.2774 19.8899 37.3289 19.4517 38.3366C18.6193 40.2206 17.9183 42.1484 17.3049 44.0762C17.3925 43.0247 17.3925 41.9731 17.3925 40.9216ZM18.2249 89.642C19.2765 92.9718 20.5471 96.214 21.9929 99.3686C24.6655 105.196 27.9953 110.672 31.9385 115.711C27.5572 112.074 23.7016 107.825 20.547 103.049C16.8667 97.4846 14.1503 91.3069 12.4416 84.8226C10.8205 78.3382 10.2509 71.5909 10.8643 64.9751C10.9081 64.1865 11.0396 63.3979 11.1272 62.653C11.171 62.7407 11.2586 62.8721 11.3024 62.9597C12.354 64.8875 13.3617 66.9905 14.3256 69.0498C14.5008 72.5548 14.9389 76.0599 15.5961 79.5211C16.341 82.9386 17.1734 86.3122 18.2249 89.642ZM14.3256 67.122C13.6684 65.7638 12.9673 64.4056 12.354 62.9159C12.0911 61.952 11.8282 61.0319 11.6091 60.068V59.9804C11.8282 58.8413 12.0473 57.7459 12.3102 56.6068C12.9235 58.4908 13.6245 60.1119 14.4132 61.3824C14.2817 63.354 14.2817 65.238 14.3256 67.122ZM10.4262 39.9139C9.68135 31.0636 10.8205 21.4247 12.0035 12.1363C14.0189 18.533 15.7276 26.0689 16.0343 36.6717C16.0343 37.3727 16.0781 38.1176 16.0781 38.8624C16.0781 39.6072 16.0781 40.3521 16.0781 41.1407C16.0781 41.3598 16.0781 41.6226 16.0781 41.8855C16.0781 41.9731 16.0781 42.1046 16.0781 42.236C16.0781 42.3675 16.0781 42.5427 16.0781 42.6742C16.0781 42.8056 16.0781 42.9809 16.0781 43.1123C16.0781 43.2437 16.0781 43.3314 16.0781 43.4628C16.0781 43.6381 16.0781 43.8133 16.0781 43.9886C16.0781 45.522 16.0343 47.2746 15.9905 49.0271C15.9905 49.1585 15.9905 49.29 15.9905 49.4214C15.9905 49.509 15.9905 49.5967 15.9905 49.6405C15.9905 49.9034 15.9905 50.1662 15.9905 50.4291C15.9905 50.4729 15.9905 50.5605 15.9905 50.6044C15.9905 50.7358 15.9905 50.8672 15.9905 50.9987C15.9905 51.0863 15.9905 51.1739 15.9905 51.2616C15.9905 51.4806 15.9905 51.6997 15.9905 51.9188C15.9905 52.0064 15.9905 52.094 15.9905 52.1816C15.9905 52.3131 15.9905 52.4007 15.9905 52.5322C15.9905 52.6636 15.9905 52.7512 15.9905 52.8827C15.9905 53.0141 15.9905 53.1455 15.9905 53.3208C15.9905 53.496 15.9905 53.6275 15.9905 53.8027C15.9905 53.8904 15.9905 53.978 15.9905 54.0656C15.9905 54.1971 15.9905 54.3285 15.9905 54.4599C15.9905 54.5476 15.9905 54.6352 15.9905 54.7228C15.9905 54.8981 15.9905 55.0733 15.9905 55.2486C15.9905 55.3362 15.9905 55.38 15.9905 55.4676C15.9905 55.5991 15.9905 55.7743 15.9905 55.9058C15.9905 55.9496 15.9905 56.0372 15.9905 56.081C15.9905 56.2563 15.9905 56.4315 15.9905 56.6068C15.9905 56.6506 15.9905 56.7382 15.9905 56.782C15.9905 56.9135 15.9905 57.0887 15.9905 57.2202C15.9905 57.264 15.9905 57.264 15.9905 57.3078C15.9905 57.483 15.9905 57.6583 15.9905 57.7897C15.9905 57.8336 15.9905 57.8774 15.9905 57.9212C15.9905 58.0526 15.9905 58.1841 15.9905 58.3155C15.9905 58.3593 15.9905 58.3593 15.9905 58.4031C15.9905 58.5346 15.9905 58.7098 15.9467 58.8413C15.9467 58.8851 15.9467 58.9289 15.9467 58.9727C15.9467 59.1041 15.9467 59.1918 15.9028 59.3232V59.367C15.9028 59.4985 15.9028 59.5861 15.859 59.7175C15.859 59.7613 15.859 59.7613 15.859 59.8052C15.859 59.8928 15.859 59.9804 15.8152 60.068C15.8152 60.1557 15.8152 60.2433 15.7714 60.2871V60.3309C15.7714 60.3747 15.7714 60.4624 15.7276 60.5062C15.7276 60.55 15.7276 60.5938 15.6838 60.6376C15.6838 60.6814 15.6838 60.6814 15.64 60.6814C15.5961 60.6814 15.5085 60.6814 15.4647 60.6376H15.4209C15.3771 60.5938 15.2895 60.5938 15.2456 60.55L15.2018 60.5062C15.158 60.4624 15.1142 60.4185 15.0704 60.3747C15.0266 60.3309 15.0266 60.3309 14.9828 60.2871C14.9389 60.2433 14.8951 60.1557 14.8513 60.068C14.8075 60.0242 14.8075 59.9804 14.7637 59.9366C14.7199 59.8928 14.7199 59.849 14.6761 59.8052C14.6323 59.7613 14.6323 59.6737 14.5884 59.6299C13.9312 58.2717 13.3179 55.7743 12.7921 53.7151C12.6607 52.9703 12.5292 52.2693 12.4416 51.5244C12.3978 51.3054 12.354 51.0863 12.3102 50.8234C12.1349 49.8157 11.9596 48.8518 11.7844 47.8441C11.6529 47.1431 11.5215 46.4421 11.4339 45.7411C10.9081 43.8571 10.6014 41.8855 10.4262 39.9139ZM10.7329 50.2539C10.8205 50.7796 10.9081 51.2616 11.0396 51.7873C10.7767 52.7074 10.5576 53.5837 10.3386 54.5037C10.2947 54.679 10.2509 54.8981 10.2071 55.0733C10.0319 54.5037 9.85661 53.9342 9.68135 53.3646C9.98805 52.3131 10.3385 51.3054 10.7329 50.2539ZM0.655811 36.7594C1.70733 37.4166 4.16087 43.3314 5.69434 46.8364C6.78967 49.3776 7.885 51.7435 8.71746 53.5837V53.6275C8.80508 53.8027 8.8489 53.9342 8.93652 54.1094C8.98034 54.2409 9.06796 54.3723 9.11178 54.5037C9.41847 55.2048 9.68135 55.7743 9.8566 56.2125C9.90042 56.3001 9.90042 56.3877 9.94423 56.4315C9.94423 56.4753 9.98804 56.563 9.98804 56.6068C9.98804 56.6506 9.98804 56.6506 10.0319 56.6944C10.0757 56.782 10.0757 56.8259 10.0757 56.9135C11.2586 60.3747 11.6091 62.0396 11.0396 61.6453C10.7329 61.2072 10.47 60.7252 10.1633 60.2433C10.1633 60.2433 10.1633 60.2433 10.1633 60.1995C9.90042 59.7175 9.59372 59.2794 9.33084 58.7975C9.06796 58.3155 8.76127 57.8336 8.49839 57.3516C8.23551 56.8697 7.97263 56.3877 7.70975 55.9058C5.03714 50.8234 2.67122 44.821 0.655811 36.7594ZM34.4359 120.881L32.4205 119.304L31.4128 118.515L30.4489 117.683L28.5211 116.018C27.9077 115.448 27.2943 114.878 26.6809 114.265C25.4103 113.126 24.2712 111.855 23.0882 110.672C22.5187 110.059 21.9491 109.402 21.3795 108.788C20.8099 108.175 20.2404 107.518 19.7146 106.861C17.4801 104.276 15.5085 101.559 13.7998 98.6237C10.3385 92.7966 8.23551 86.2684 7.27162 79.6088C6.30773 72.9053 6.70205 66.0705 8.01645 59.4547C8.10407 59.0165 8.1917 58.6222 8.32314 58.1841C8.58602 58.6222 8.89271 59.0603 9.1994 59.5423C9.1994 59.5423 9.1994 59.5423 9.1994 59.5861L8.80508 62.1711C8.67364 63.0473 8.5422 63.8798 8.49839 64.7561C7.84119 71.6786 8.41077 78.7325 10.1195 85.4798C11.872 92.227 14.7637 98.6237 18.5755 104.451C22.431 110.234 27.2943 115.317 32.8586 119.523L33.9101 120.311C34.2606 120.574 34.6549 120.793 35.0054 121.012L37.1961 122.414C37.7219 122.721 38.2476 122.984 38.7734 123.291C39.6058 124.079 40.4821 124.868 41.3146 125.613C38.9486 124.123 36.6703 122.546 34.4359 120.881ZM43.9434 123.203C41.0517 120.618 38.3353 117.77 35.9255 114.747C31.7633 109.577 28.302 103.838 25.498 97.7913C24.0959 94.7682 22.913 91.6574 21.9053 88.4591C20.8537 85.3045 20.0213 82.0623 19.4079 78.7763C18.1373 72.2481 17.6554 65.5447 18.0935 58.9289C18.5316 52.3131 19.9775 45.7411 22.4748 39.6072C22.6939 39.0377 22.9568 38.4243 23.2197 37.8547C25.7608 36.4965 31.2813 34.2182 36.057 31.2389C40.6574 28.3472 44.8196 23.9221 46.5722 21.7314C48.3247 19.4969 49.8582 16.5614 49.902 16.2547C49.9458 15.9042 50.1648 15.5099 49.902 15.6413C49.6391 15.729 38.2038 21.4685 33.1653 24.7983C31.1937 26.1127 29.2659 27.6462 27.3819 29.3111C27.2505 29.4425 27.0752 29.574 26.9438 29.7054C26.5495 30.0559 26.199 30.4064 25.8046 30.7569C25.6294 30.9322 25.4541 31.0636 25.2789 31.2389C24.8846 31.5894 24.5341 31.9399 24.1397 32.2904C23.9645 32.4218 23.833 32.5971 23.6578 32.7285C23.132 33.2105 22.6063 33.7362 22.0805 34.262C21.7738 34.6125 21.7738 34.6125 21.7738 33.9553C21.7738 33.8239 21.7738 33.7362 21.7738 33.6048C21.8176 33.0352 21.8615 32.5095 21.9491 31.9837C21.9929 31.6332 22.0805 31.2827 22.1243 30.9322C22.1243 30.8884 22.1243 30.8008 22.1681 30.7569C22.2558 30.4064 22.3434 30.0559 22.431 29.7054C22.431 29.6178 22.4748 29.5302 22.5186 29.4864C22.6063 29.1358 22.7377 28.7853 22.8253 28.4348C22.8692 28.3472 22.8692 28.3034 22.913 28.2158C23.0444 27.9091 23.132 27.6024 23.2635 27.2957C23.3073 27.2519 23.3073 27.1642 23.3511 27.1204C23.4825 26.8137 23.614 26.4632 23.7892 26.1565C23.833 26.0689 23.8769 25.9375 23.9207 25.8498C24.0521 25.5432 24.2274 25.2365 24.3588 24.9298C24.4026 24.7983 24.4902 24.7107 24.5341 24.5793C24.6655 24.2726 24.8408 24.0097 25.016 23.7468C25.0598 23.6154 25.1474 23.5277 25.1913 23.3963C25.3227 23.1772 25.4541 22.9144 25.6294 22.6953C27.8639 19.0588 30.8432 15.729 33.6472 12.8811C37.8095 8.63122 41.446 5.78336 41.6212 5.69573C41.9279 5.47666 42.5413 5.08234 42.3661 5.38904C40.8764 7.84258 39.5182 10.1209 38.2476 12.3115C37.7657 13.144 37.2837 13.9326 37.0647 14.3708C36.6265 15.0718 36.2322 15.8166 35.7941 16.5176C35.3998 17.1748 34.3482 18.9273 33.3405 20.6799C32.771 21.6438 32.1576 22.6515 31.5004 23.703C30.9308 24.5793 30.4927 25.3241 30.2298 25.806C30.0545 26.1127 29.9669 26.3318 30.0107 26.3318C30.6241 25.7184 31.2375 25.0174 31.8947 24.2288C32.2452 23.8782 32.5957 23.5277 33.1215 22.9582C37.6342 18.0949 43.0671 14.0641 49.1571 11.3038C55.2472 8.63122 61.9068 7.27301 68.6102 7.2292C70.2751 7.31682 71.9839 7.27301 73.6488 7.49207C74.4812 7.5797 75.3137 7.66733 76.1461 7.75495L78.6435 8.19309L79.8703 8.41215L81.097 8.71885L83.5506 9.33223C84.383 9.5513 85.1717 9.81418 85.9603 10.0771C86.7489 10.3399 87.5814 10.559 88.37 10.9095C89.9473 11.5229 91.5246 12.0925 93.0581 12.8373C93.8029 13.1878 94.5915 13.5383 95.3363 13.9326L97.5708 15.1594L98.6662 15.7728L99.7615 16.43L101.908 17.7882C102.609 18.2701 103.31 18.7521 103.968 19.234L105.019 19.9789L105.545 20.3294L106.027 20.7237C110.364 24.0973 114.264 27.9967 117.681 32.2904L117.725 32.378L119.127 34.4811C120.047 35.8831 120.923 37.3289 121.8 38.7748C124.428 43.2875 126.707 47.9756 128.547 52.8388C128.634 53.1017 128.722 53.3646 128.81 53.6713C129.116 54.4599 129.248 55.2924 129.467 56.1248L130.08 58.5784C130.343 60.2433 130.694 61.9082 130.825 63.6169C131.044 65.2818 131.044 66.9905 131.132 68.6993C131.088 70.408 131.132 72.1167 130.957 73.7816C130.913 74.2635 130.913 74.7455 130.869 75.2274C129.73 81.7994 127.977 88.24 125.48 94.4177L124.516 96.7836L123.421 99.1057C122.72 100.683 121.887 102.129 121.099 103.618C120.704 104.363 120.222 105.064 119.784 105.809L119.127 106.904C118.908 107.255 118.645 107.605 118.426 107.956L116.98 110.059L115.447 112.074C113.344 114.747 111.065 117.288 108.612 119.61C106.859 121.275 104.975 122.765 103.004 124.211C102.609 124.386 102.215 124.517 101.821 124.693C101.032 124.999 100.243 125.262 99.4548 125.525L98.2719 125.919L97.6585 126.138L97.0451 126.314C95.424 126.708 93.8029 127.234 92.1818 127.541C79.0378 130.257 65.149 129.863 52.2241 126.27C49.42 125.35 46.616 124.386 43.9434 123.203ZM22.431 37.0661C22.5187 36.847 22.6063 36.5841 22.6939 36.365C22.6939 36.3212 22.7377 36.2774 22.7377 36.2336C22.8253 36.0145 22.9568 35.7955 23.0444 35.5764C23.0444 35.5326 23.0882 35.4888 23.0882 35.445C23.2197 35.2697 23.3073 35.0506 23.4387 34.8754C23.4387 34.8316 23.4825 34.8316 23.4825 34.7878C23.614 34.5687 23.7892 34.3934 23.9207 34.1744C23.9645 34.1306 24.0083 34.0868 24.0083 34.0429C24.1836 33.8677 24.315 33.6486 24.4902 33.4734L24.5341 33.4296C24.7093 33.2543 24.8846 33.079 25.016 32.9038C25.0598 32.86 25.0598 32.86 25.1036 32.8162C25.2789 32.6409 25.4541 32.4657 25.6732 32.2904C25.717 32.2466 25.7608 32.2028 25.7608 32.2028C25.9361 32.0275 26.1552 31.8523 26.3304 31.677C26.7247 31.2827 27.119 30.9322 27.5134 30.5817C33.2529 25.1926 41.5774 21.1618 47.3608 17.8758C47.7989 17.6129 48.2371 17.4377 48.2371 17.6568C48.2371 17.8758 46.7036 19.6284 46.616 19.716C43.9872 22.1695 37.8533 28.7853 32.7271 31.3703C27.601 33.9553 24.9284 35.4011 23.4387 36.3212C23.4387 36.3212 23.3949 36.3212 23.3949 36.365C23.2635 36.4527 23.132 36.5403 23.0444 36.5841C23.0006 36.5841 23.0006 36.6279 22.9568 36.6279C22.8692 36.6717 22.7815 36.7594 22.6939 36.8032C22.6501 36.8032 22.6501 36.847 22.6063 36.847C22.6063 36.9346 22.5187 37.0222 22.431 37.0661ZM129.467 83.552C129.467 83.6396 129.423 83.7272 129.423 83.771C129.073 85.4359 128.547 87.057 128.109 88.6781C127.846 89.5106 127.539 90.2992 127.276 91.0879C127.145 91.4822 127.013 91.8765 126.838 92.2708L126.356 93.4538C125.962 94.5053 125.48 95.6006 124.998 96.6083L125.874 94.4177C127.32 90.9564 128.503 87.2761 129.467 83.552ZM98.6224 128.022C98.3157 128.198 98.009 128.373 97.7023 128.548C96.2564 129.468 94.723 130.169 93.1895 130.914C90.0788 132.229 86.8804 133.412 83.5068 133.981C83.0248 134.069 82.5429 134.156 82.0171 134.244C87.4938 133.149 92.7076 131.046 97.527 128.285C97.5708 128.285 97.5708 128.285 97.6146 128.285L98.228 128.11L98.6224 128.022ZM59.8038 133.368C57.7884 132.623 53.407 130.257 50.4715 128.285C50.2963 128.154 50.121 128.022 49.9458 127.891C50.5153 128.066 51.0849 128.198 51.6107 128.373C58.2703 130.257 65.149 131.221 72.0715 131.396C78.9502 131.571 85.8727 131.002 92.6637 129.556C93.4524 129.424 94.241 129.205 94.9859 129.03C90.8674 131.133 86.5299 132.71 81.9733 133.631C78.6435 134.332 75.2699 134.638 71.8962 134.682H70.6257C70.1875 134.682 69.7932 134.638 69.3551 134.638L67.4711 134.551C66.1129 134.375 61.8192 134.113 59.8038 133.368ZM106.64 129.118C103.924 131.046 101.032 132.754 97.9651 134.025C97.1765 134.332 96.4317 134.638 95.6431 134.901L94.4601 135.295L93.2771 135.646C92.4885 135.865 91.656 136.04 90.8674 136.216C90.035 136.435 89.2463 136.566 88.4139 136.698C81.8419 137.837 75.0508 137.705 68.6102 136.216C67.4273 135.953 66.2005 135.646 65.0176 135.295C71.239 136.084 77.592 135.997 83.7258 134.638C87.0995 133.981 90.2978 132.754 93.4086 131.308C94.942 130.52 96.4755 129.775 97.9213 128.855C98.4909 128.504 99.0605 128.154 99.6301 127.76L100.2 127.584C101.032 127.278 101.865 127.059 102.653 126.708C104.23 126.007 105.895 125.394 107.385 124.561C108.174 124.167 108.962 123.816 109.707 123.378L111.942 122.064C112.686 121.626 113.387 121.144 114.132 120.662C114.833 120.18 115.578 119.698 116.279 119.172C117.112 118.515 117.988 117.858 118.82 117.201C115.315 121.67 111.241 125.788 106.64 129.118ZM123.64 109.709C122.15 111.33 120.573 112.863 118.864 114.265C117.637 115.404 116.279 116.368 114.921 117.42C114.264 117.945 113.519 118.384 112.862 118.866C112.161 119.347 111.503 119.829 110.759 120.224L108.612 121.494C107.911 121.932 107.122 122.239 106.377 122.633C106.114 122.765 105.808 122.94 105.501 123.072C105.808 122.809 106.114 122.546 106.377 122.283C107.254 121.538 108.13 120.793 108.962 120.048C111.46 117.683 113.738 115.141 115.841 112.425L117.374 110.366L118.82 108.219C119.039 107.868 119.302 107.518 119.521 107.167L120.179 106.072C120.617 105.327 121.055 104.626 121.493 103.881C122.15 102.611 122.851 101.384 123.465 100.113C124.56 98.0104 125.611 95.9073 126.488 93.6728L126.97 92.4899C127.145 92.0956 127.276 91.7012 127.408 91.3069C127.714 90.5183 128.021 89.6858 128.284 88.8972C128.766 87.2761 129.335 85.655 129.686 83.9901C130.124 82.3252 130.431 80.6603 130.738 78.9954C130.957 77.2867 131.263 75.6218 131.351 73.913C131.526 72.2043 131.526 70.4956 131.57 68.7869C131.482 67.0782 131.482 65.3694 131.263 63.6607C131.176 62.3463 130.957 60.9881 130.694 59.6737C132.227 65.3695 132.972 71.2404 132.928 77.1114C132.928 77.5495 132.928 77.9439 132.928 78.382L132.841 79.6526L132.665 82.1499C132.621 82.9824 132.446 83.8149 132.359 84.6473C132.227 85.4798 132.14 86.3122 132.008 87.1447C131.439 90.4307 130.606 93.7167 129.511 96.8712C128.021 101.253 126.049 105.59 123.64 109.709ZM142.655 65.72C142.611 66.5524 142.523 67.3849 142.436 68.2173C142.348 69.0498 142.304 69.8822 142.173 70.7147L141.822 73.212C141.691 74.0445 141.516 74.8769 141.34 75.6656C141.034 77.3305 140.552 78.9516 140.157 80.5727C139.193 83.771 138.098 86.9694 136.696 90.0363C134.768 94.4615 132.315 98.6676 129.511 102.567C130.256 100.858 130.913 99.1057 131.526 97.3532C132.665 94.0672 133.498 90.7373 134.111 87.3199C134.243 86.4875 134.33 85.6112 134.462 84.7349C134.549 83.8587 134.725 83.0262 134.768 82.1499L134.944 79.565L135.031 78.2506C135.075 77.8124 135.031 77.3743 135.031 76.9362C135.075 70.0137 134.024 63.0912 132.008 56.4753C129.949 49.8595 127.057 43.5942 123.596 37.6356C122.72 36.146 121.8 34.7001 120.88 33.2543L119.434 31.1074L118.733 30.0559L117.988 29.0044C116.98 27.6024 116.016 26.2004 114.965 24.8421L113.387 22.7829L111.723 20.8113C107.297 15.5537 102.215 10.6904 96.2564 7.05394L94.022 5.73954C93.3209 5.34522 92.6199 5.03853 91.9189 4.68802C92.2694 4.73184 92.5761 4.81946 92.9266 4.90709C96.2126 5.6081 99.4548 6.52818 102.609 7.75495C105.764 8.98173 108.831 10.3838 111.766 12.0487C114.702 13.7136 117.506 15.5975 120.179 17.6568C120.836 18.1387 121.493 18.7083 122.15 19.234L123.114 20.0227C123.421 20.2856 123.727 20.5923 124.078 20.8551L125.962 22.5639L127.758 24.3602C128.372 24.9298 128.897 25.587 129.467 26.2004C130.036 26.8137 130.606 27.4271 131.132 28.0843L132.665 30.0997C132.928 30.4502 133.191 30.7569 133.41 31.1074L134.111 32.159C134.549 32.86 135.031 33.561 135.469 34.262L136.696 36.4527C136.871 36.8032 137.09 37.1975 137.31 37.548L137.835 38.6871C138.186 39.432 138.536 40.2206 138.843 40.9654C139.413 42.5427 140.07 44.0762 140.508 45.6973C140.727 46.4859 140.99 47.3184 141.209 48.107L141.735 50.5606C142.348 53.8465 142.786 57.1764 142.83 60.55C142.786 62.3901 142.699 64.055 142.655 65.72Z" fill="url(#paint6_linear)"/>
<path d="M10.4261 39.9144C9.68129 31.0641 10.8204 21.4251 12.0034 12.1367C14.0188 18.5335 15.7275 26.0693 16.0342 36.6722C16.0342 37.3732 16.078 38.118 16.078 38.8628C16.078 39.6077 16.078 40.3525 16.078 41.1411C16.078 41.3602 16.078 41.6231 16.078 41.886C16.078 41.9736 16.078 42.105 16.078 42.2365C16.078 42.3679 16.078 42.5432 16.078 42.6746C16.078 42.806 16.078 42.9813 16.078 43.1127C16.078 43.2442 16.078 43.3318 16.078 43.4632C16.078 43.6385 16.078 43.8137 16.078 43.989C16.078 45.5225 16.0342 47.275 15.9904 49.0275C15.9904 49.159 15.9904 49.2904 15.9904 49.4218C15.9904 49.5095 15.9904 49.5971 15.9904 49.6409C15.9904 49.9038 15.9904 50.1667 15.9904 50.4295C15.9904 50.4734 15.9904 50.561 15.9904 50.6048C15.9904 50.7362 15.9904 50.8677 15.9904 50.9991C15.9904 51.0867 15.9904 51.1744 15.9904 51.262C15.9904 51.4811 15.9904 51.7001 15.9904 51.9192C15.9904 52.0068 15.9904 52.0944 15.9904 52.1821C15.9904 52.3135 15.9904 52.4011 15.9904 52.5326C15.9904 52.664 15.9904 52.7517 15.9904 52.8831C15.9904 53.0145 15.9904 53.146 15.9904 53.3212C15.9904 53.4965 15.9904 53.6279 15.9904 53.8032C15.9904 53.8908 15.9904 53.9784 15.9904 54.066C15.9904 54.1975 15.9904 54.3289 15.9904 54.4604C15.9904 54.548 15.9904 54.6356 15.9904 54.7232C15.9904 54.8985 15.9904 55.0738 15.9904 55.249C15.9904 55.3366 15.9904 55.3804 15.9904 55.4681C15.9904 55.5995 15.9904 55.7748 15.9904 55.9062C15.9904 55.95 15.9904 56.0376 15.9904 56.0815C15.9904 56.2567 15.9904 56.432 15.9904 56.6072C15.9904 56.651 15.9904 56.7387 15.9904 56.7825C15.9904 56.9139 15.9904 57.0892 15.9904 57.2206C15.9904 57.2644 15.9904 57.2644 15.9904 57.3082C15.9904 57.4835 15.9904 57.6587 15.9904 57.7902C15.9904 57.834 15.9904 57.8778 15.9904 57.9216C15.9904 58.0531 15.9904 58.1845 15.9904 58.3159C15.9904 58.3598 15.9904 58.3597 15.9904 58.4036C15.9904 58.535 15.9904 58.7103 15.9466 58.8417C15.9466 58.8855 15.9466 58.9293 15.9466 58.9731C15.9466 59.1046 15.9466 59.1922 15.9028 59.3236V59.3675C15.9028 59.4989 15.9028 59.5865 15.859 59.718C15.859 59.7618 15.859 59.7618 15.859 59.8056C15.859 59.8932 15.859 59.9808 15.8152 60.0685C15.8152 60.1561 15.8152 60.2437 15.7713 60.2875V60.3314C15.7713 60.3752 15.7713 60.4628 15.7275 60.5066C15.7275 60.5504 15.7275 60.5942 15.6837 60.638C15.6837 60.6819 15.6837 60.6819 15.6399 60.6819C15.5961 60.6819 15.5085 60.6819 15.4646 60.638H15.4208C15.377 60.5942 15.2894 60.5942 15.2456 60.5504L15.2018 60.5066C15.158 60.4628 15.1141 60.419 15.0703 60.3752C15.0265 60.3313 15.0265 60.3313 14.9827 60.2875C14.9389 60.2437 14.8951 60.1561 14.8513 60.0685C14.8074 60.0247 14.8074 59.9808 14.7636 59.937C14.7198 59.8932 14.7198 59.8494 14.676 59.8056C14.6322 59.7618 14.6322 59.6741 14.5884 59.6303C13.9312 58.2721 13.3178 55.7748 12.792 53.7155C12.6606 52.9707 12.5292 52.2697 12.4415 51.5249C12.3977 51.3058 12.3539 51.0867 12.3101 50.8239C12.1348 49.8162 11.9596 48.8523 11.7843 47.8446C11.6529 47.1435 11.5214 46.4425 11.4338 45.7415C10.9081 43.8575 10.6014 41.886 10.4261 39.9144Z" fill="#7CE6AF"/>
<path d="M22.5188 37.1538C22.6064 36.9348 22.6941 36.6719 22.7817 36.4528C22.7817 36.409 22.8255 36.3652 22.8255 36.3214C22.9131 36.1023 23.0446 35.8833 23.1322 35.708C23.1322 35.6642 23.176 35.6204 23.176 35.5766C23.3074 35.4013 23.3951 35.1822 23.5265 35.007C23.5265 34.9632 23.5703 34.9632 23.5703 34.9194C23.7018 34.7003 23.877 34.525 24.0085 34.3498C24.0523 34.306 24.0523 34.2622 24.0961 34.2184C24.2713 34.0431 24.4028 33.824 24.578 33.6488L24.6218 33.605C24.7971 33.4297 24.9285 33.2545 25.1038 33.0792C25.1476 33.0354 25.1476 33.0354 25.1914 32.9916C25.3667 32.8163 25.5419 32.6411 25.7172 32.4658C25.761 32.422 25.8048 32.422 25.8048 32.3782C25.98 32.2029 26.1553 32.0277 26.3744 31.8524C26.7687 31.5019 27.163 31.1076 27.5573 30.7571C33.2092 25.4557 41.4461 21.4687 47.1419 18.2265C47.58 17.9636 47.9743 17.7884 48.0181 18.0074C48.062 18.2265 46.5285 19.9352 46.3971 20.0667C43.8121 22.4764 37.7658 29.0484 32.7273 31.5896C27.6888 34.1307 25.0162 35.5766 23.5703 36.4966C23.5703 36.4966 23.5265 36.4966 23.5265 36.5405C23.3951 36.6281 23.2636 36.6719 23.176 36.7595C23.1322 36.7595 23.1322 36.8033 23.0884 36.8033C23.0007 36.8471 22.9131 36.9348 22.8255 36.9786C22.7817 36.9786 22.7817 37.0224 22.7379 37.0224C22.6941 37.0224 22.6064 37.0662 22.5188 37.1538Z" fill="#7CE6AF"/>
<path d="M0.656006 36.7598C1.70753 37.417 4.16107 43.3318 5.69454 46.8368C6.78987 49.378 7.8852 51.7439 8.71765 53.5841V53.6279C8.80528 53.8031 8.84909 53.9346 8.93672 54.1098C8.98053 54.2413 9.06816 54.3727 9.11197 54.5042C9.41867 55.2052 9.68154 55.7747 9.8568 56.2129C9.90061 56.3005 9.90061 56.3881 9.94443 56.4319C9.94443 56.4757 9.98824 56.5634 9.98824 56.6072C9.98824 56.651 9.98824 56.651 10.0321 56.6948C10.0759 56.7824 10.0759 56.8263 10.0759 56.9139C11.2588 60.3751 11.6093 62.04 11.0398 61.6457C10.7331 61.2076 10.4702 60.7256 10.1635 60.2437C10.1635 60.2437 10.1635 60.2437 10.1635 60.1999C9.90061 59.7179 9.59392 59.2798 9.33104 58.7979C9.06816 58.3159 8.76147 57.834 8.49859 57.352C8.23571 56.8701 7.97283 56.3881 7.70995 55.9062C5.03734 50.8238 2.67142 44.8214 0.656006 36.7598Z" fill="#7CE6AF"/>
<defs>
<linearGradient id="paint0_linear" x1="10.1994" y1="69.7174" x2="133.564" y2="69.7174" gradientUnits="userSpaceOnUse">
<stop stop-color="#527FAC"/>
<stop offset="0.0704721" stop-color="#3D8FA9"/>
<stop offset="0.1892" stop-color="#21A5A6"/>
<stop offset="0.2924" stop-color="#0FB3A4"/>
<stop offset="0.3679" stop-color="#09B8A3"/>
<stop offset="0.4229" stop-color="#16AEA5"/>
<stop offset="0.56" stop-color="#3099A8"/>
<stop offset="0.7004" stop-color="#438BAA"/>
<stop offset="0.8449" stop-color="#4E82AC"/>
<stop offset="1" stop-color="#527FAC"/>
</linearGradient>
<linearGradient id="paint1_linear" x1="24.8688" y1="21.5542" x2="115.757" y2="112.442" gradientUnits="userSpaceOnUse">
<stop stop-color="#03FDFE"/>
<stop offset="0.5751" stop-color="#6B6AB1"/>
<stop offset="1" stop-color="#8617C4"/>
</linearGradient>
<linearGradient id="paint2_linear" x1="28.7958" y1="16.2887" x2="112.664" y2="116.239" gradientUnits="userSpaceOnUse">
<stop offset="0.1218" stop-color="#FEDC65"/>
<stop offset="0.329" stop-color="#D85896"/>
<stop offset="0.5285" stop-color="#B636C2"/>
<stop offset="1" stop-color="#8617C4"/>
</linearGradient>
<linearGradient id="paint3_linear" x1="28.7958" y1="16.2887" x2="112.664" y2="116.239" gradientUnits="userSpaceOnUse">
<stop offset="0.1218" stop-color="#FEDC65"/>
<stop offset="0.2772" stop-color="#64DE9F"/>
<stop offset="0.5518" stop-color="#01928E"/>
<stop offset="1" stop-color="#8617C4"/>
</linearGradient>
<linearGradient id="paint4_linear" x1="28.7958" y1="16.2887" x2="112.664" y2="116.239" gradientUnits="userSpaceOnUse">
<stop offset="0.2772" stop-color="#64DE9F"/>
<stop offset="0.5518" stop-color="#01928E"/>
<stop offset="1" stop-color="#8617C4"/>
</linearGradient>
<radialGradient id="paint5_radial" cx="0" cy="0" r="1" gradientUnits="userSpaceOnUse" gradientTransform="translate(74.5128 67.1847) rotate(49.9978) scale(59.3685 71.2445)">
<stop offset="0.8187" stop-color="#FEDC65" stop-opacity="0"/>
<stop offset="0.9482" stop-color="#FEDC65"/>
</radialGradient>
<linearGradient id="paint6_linear" x1="14.6635" y1="6.34894" x2="123.96" y2="115.645" gradientUnits="userSpaceOnUse">
<stop stop-color="#7CE6AF"/>
<stop offset="0.3756" stop-color="#09BAA3"/>
<stop offset="0.8394" stop-color="#6B6AB1"/>
<stop offset="1" stop-color="#8617C4"/>
</linearGradient>
<clipPath id="clip0">
<rect width="96.8274" height="82.8071" fill="white" transform="translate(18.0935 5.08203)"/>
</clipPath>
</defs>
</svg>
